<svg width="24" height="24" viewBox="0 0 24 24" fill="none" xmlns="http://www.w3.org/2000/svg">
<path d="M11.7172 7.47452C11.8734 7.31831 12.1266 7.31831 12.2828 7.47452L16.5255 11.7172C16.6817 11.8734 16.6817 12.1266 16.5255 12.2828L12.2828 16.5255C12.1266 16.6817 11.8734 16.6817 11.7172 16.5255L7.47452 12.2828C7.31831 12.1266 7.31831 11.8734 7.47452 11.7172L11.7172 7.47452Z" stroke="#B2B7BF" stroke-width="1.2"/>
<path d="M6.5 4.6C6.83137 4.6 7.1 4.33137 7.1 4C7.1 3.66863 6.83137 3.4 6.5 3.4V4.6ZM6.5 20.6C6.83137 20.6 7.1 20.3314 7.1 20C7.1 19.6686 6.83137 19.4 6.5 19.4V20.6ZM4 4.6H6.5V3.4H4V4.6ZM6.5 19.4H4V20.6H6.5V19.4ZM3.6 19V5H2.4V19H3.6ZM4 19.4C3.77909 19.4 3.6 19.2209 3.6 19H2.4C2.4 19.8837 3.11634 20.6 4 20.6V19.4ZM4 3.4C3.11634 3.4 2.4 4.11634 2.4 5H3.6C3.6 4.77909 3.77909 4.6 4 4.6V3.4Z" fill="#B2B7BF"/>
<path d="M17.5 4.6C17.1686 4.6 16.9 4.33137 16.9 4C16.9 3.66863 17.1686 3.4 17.5 3.4V4.6ZM17.5 20.6C17.1686 20.6 16.9 20.3314 16.9 20C16.9 19.6686 17.1686 19.4 17.5 19.4V20.6ZM20 4.6H17.5V3.4H20V4.6ZM17.5 19.4H20V20.6H17.5V19.4ZM20.4 19V5H21.6V19H20.4ZM20 19.4C20.2209 19.4 20.4 19.2209 20.4 19H21.6C21.6 19.8837 20.8837 20.6 20 20.6V19.4ZM20 3.4C20.8837 3.4 21.6 4.11634 21.6 5H20.4C20.4 4.77909 20.2209 4.6 20 4.6V3.4Z" fill="#B2B7BF"/>
</svg>
