<svg width="24" height="24" viewBox="0 0 24 24" fill="none" xmlns="http://www.w3.org/2000/svg">
<path d="M3.94229 12.5946C3.71838 12.3503 3.33884 12.3338 3.09457 12.5577C2.85029 12.7816 2.83379 13.1612 3.05771 13.4054L3.94229 12.5946ZM9 19L8.55771 19.4054C8.66986 19.5278 8.82767 19.5982 8.99363 19.6C9.15959 19.6017 9.31886 19.5347 9.43359 19.4147L9 19ZM20.4336 7.91473C20.6626 7.67527 20.6542 7.29547 20.4147 7.06641C20.1753 6.83736 19.7955 6.8458 19.5664 7.08527L20.4336 7.91473ZM3.05771 13.4054L8.55771 19.4054L9.44229 18.5946L3.94229 12.5946L3.05771 13.4054ZM9.43359 19.4147L20.4336 7.91473L19.5664 7.08527L8.56641 18.5853L9.43359 19.4147Z" fill="#B2B7BF"/>
</svg>
