<svg width="24" height="24" viewBox="0 0 24 24" fill="none" xmlns="http://www.w3.org/2000/svg">
<path d="M14.4243 7.42426C14.6586 7.18995 14.6586 6.81005 14.4243 6.57574C14.1899 6.34142 13.8101 6.34142 13.5757 6.57574L14.4243 7.42426ZM9 12L8.57574 11.5757C8.34142 11.8101 8.34142 12.1899 8.57574 12.4243L9 12ZM13.5757 17.4243C13.8101 17.6586 14.1899 17.6586 14.4243 17.4243C14.6586 17.1899 14.6586 16.8101 14.4243 16.5757L13.5757 17.4243ZM13.5757 6.57574L8.57574 11.5757L9.42426 12.4243L14.4243 7.42426L13.5757 6.57574ZM8.57574 12.4243L13.5757 17.4243L14.4243 16.5757L9.42426 11.5757L8.57574 12.4243Z" fill="#B2B7BF"/>
</svg>
