<svg width="24" height="24" viewBox="0 0 24 24" fill="none" xmlns="http://www.w3.org/2000/svg">
<mask id="path-2-inside-1_98_63" fill="white">
<path d="M12 22C13.2426 22 14.25 20.9926 14.25 19.75C14.25 19.5758 14.2302 19.4062 14.1927 19.2434H13.1431C13.2118 19.3983 13.25 19.5697 13.25 19.75C13.25 20.4403 12.6904 21 12 21C11.3096 21 10.75 20.4403 10.75 19.75C10.75 19.5697 10.7882 19.3983 10.8569 19.2434H9.80726C9.76979 19.4062 9.75 19.5758 9.75 19.75C9.75 20.9926 10.7574 22 12 22Z"/>
</mask>
<path d="M10.8569 19.2434L11.9537 19.7302L12.7024 18.0434H10.8569V19.2434ZM9.80726 19.2434V18.0434H8.85201L8.63781 18.9743L9.80726 19.2434ZM13.1431 19.2434V18.0434H11.2976L12.0463 19.7302L13.1431 19.2434ZM14.1927 19.2434L15.3622 18.9743L15.148 18.0434H14.1927V19.2434ZM13.05 19.75C13.05 20.3299 12.5799 20.8 12 20.8V23.2C13.9054 23.2 15.45 21.6554 15.45 19.75H13.05ZM12 20.8C11.4201 20.8 10.95 20.3299 10.95 19.75H8.55C8.55 21.6554 10.0946 23.2 12 23.2V20.8ZM12 22.2C13.3531 22.2 14.45 21.1031 14.45 19.75H12.05C12.05 19.7776 12.0276 19.8 12 19.8V22.2ZM9.55 19.75C9.55 21.1031 10.6469 22.2 12 22.2V19.8C11.9724 19.8 11.95 19.7776 11.95 19.75H9.55ZM9.76008 18.7566C9.62464 19.0618 9.55 19.3988 9.55 19.75H11.95C11.95 19.7447 11.9505 19.741 11.9511 19.7383C11.9517 19.7355 11.9526 19.7328 11.9537 19.7302L9.76008 18.7566ZM10.95 19.75C10.95 19.667 10.9594 19.5877 10.9767 19.5125L8.63781 18.9743C8.58019 19.2248 8.55 19.4846 8.55 19.75H10.95ZM10.8569 18.0434H9.80726V20.4434H10.8569V18.0434ZM14.45 19.75C14.45 19.3988 14.3754 19.0618 14.2399 18.7566L12.0463 19.7302C12.0474 19.7328 12.0483 19.7355 12.0489 19.7383C12.0495 19.741 12.05 19.7447 12.05 19.75H14.45ZM13.0233 19.5125C13.0406 19.5877 13.05 19.667 13.05 19.75H15.45C15.45 19.4846 15.4198 19.2248 15.3622 18.9743L13.0233 19.5125ZM13.1431 20.4434H14.1927V18.0434H13.1431V20.4434Z" fill="#B2B7BF" mask="url(#path-2-inside-1_98_63)"/>
<mask id="path-4-inside-2_98_63" fill="white">
<path d="M12 2C10.8954 2 10 2.89543 10 4V6H11V4C11 3.44772 11.4477 3 12 3C12.5523 3 13 3.44772 13 4V6H14V4C14 2.89543 13.1046 2 12 2Z"/>
</mask>
<path d="M10 6H8.8V7.2H10V6ZM11 6V7.2H12.2V6H11ZM13 6H11.8V7.2H13V6ZM14 6V7.2H15.2V6H14ZM11.2 4C11.2 3.55817 11.5582 3.2 12 3.2V0.8C10.2327 0.8 8.8 2.23269 8.8 4H11.2ZM12 3.2C12.4418 3.2 12.8 3.55817 12.8 4H15.2C15.2 2.23269 13.7673 0.8 12 0.8V3.2ZM12 4.2C11.8895 4.2 11.8 4.11046 11.8 4H14.2C14.2 2.78497 13.215 1.8 12 1.8V4.2ZM12.2 4C12.2 4.11046 12.1105 4.2 12 4.2V1.8C10.785 1.8 9.8 2.78497 9.8 4H12.2ZM11.2 6V4H8.8V6H11.2ZM12.2 6V4H9.8V6H12.2ZM10 7.2H11V4.8H10V7.2ZM11.8 4V6H14.2V4H11.8ZM12.8 4V6H15.2V4H12.8ZM13 7.2H14V4.8H13V7.2Z" fill="#B2B7BF" mask="url(#path-4-inside-2_98_63)"/>
<path d="M4 19L3.57574 18.5758C3.40414 18.7474 3.3528 19.0054 3.44567 19.2296C3.53854 19.4538 3.75732 19.6 4 19.6V19ZM20 19V19.6C20.2427 19.6 20.4615 19.4538 20.5543 19.2296C20.6472 19.0054 20.5959 18.7474 20.4243 18.5758L20 19ZM12 4.9C7.63031 4.9 5.9 8.20832 5.9 10H7.1C7.1 8.79173 8.36969 6.1 12 6.1V4.9ZM5.9 10C5.9 10.003 5.9 10.0059 5.9 10.0088C5.9 10.0117 5.9 10.0146 5.9 10.0175C5.9 10.0204 5.9 10.0233 5.9 10.0261C5.9 10.029 5.9 10.0319 5.9 10.0347C5.9 10.0376 5.9 10.0404 5.9 10.0433C5.9 10.0461 5.9 10.0489 5.9 10.0517C5.9 10.0546 5.9 10.0574 5.9 10.0602C5.9 10.063 5.9 10.0658 5.9 10.0685C5.9 10.0713 5.9 10.0741 5.9 10.0768C5.9 10.0796 5.9 10.0824 5.9 10.0851C5.9 10.0878 5.9 10.0906 5.9 10.0933C5.9 10.096 5.9 10.0987 5.9 10.1015C5.9 10.1042 5.9 10.1069 5.9 10.1096C5.9 10.1122 5.9 10.1149 5.9 10.1176C5.9 10.1203 5.9 10.1229 5.9 10.1256C5.9 10.1282 5.9 10.1309 5.9 10.1335C5.9 10.1362 5.9 10.1388 5.9 10.1414C5.9 10.144 5.9 10.1466 5.9 10.1492C5.9 10.1518 5.9 10.1544 5.9 10.157C5.9 10.1596 5.9 10.1622 5.9 10.1647C5.9 10.1673 5.9 10.1699 5.9 10.1724C5.9 10.175 5.9 10.1775 5.9 10.1801C5.9 10.1826 5.9 10.1851 5.9 10.1876C5.9 10.1901 5.9 10.1927 5.9 10.1952C5.9 10.1977 5.9 10.2001 5.9 10.2026C5.9 10.2051 5.9 10.2076 5.9 10.2101C5.9 10.2125 5.9 10.215 5.9 10.2174C5.9 10.2199 5.9 10.2223 5.9 10.2248C5.9 10.2272 5.9 10.2296 5.9 10.232C5.9 10.2344 5.9 10.2369 5.9 10.2393C5.9 10.2417 5.9 10.244 5.9 10.2464C5.9 10.2488 5.9 10.2512 5.9 10.2536C5.9 10.2559 5.9 10.2583 5.9 10.2606C5.9 10.263 5.9 10.2653 5.9 10.2677C5.9 10.27 5.9 10.2723 5.9 10.2747C5.9 10.277 5.9 10.2793 5.9 10.2816C5.9 10.2839 5.9 10.2862 5.9 10.2885C5.9 10.2908 5.9 10.2931 5.9 10.2954C5.9 10.2976 5.9 10.2999 5.9 10.3022C5.9 10.3044 5.9 10.3067 5.9 10.3089C5.9 10.3112 5.9 10.3134 5.9 10.3156C5.9 10.3178 5.9 10.3201 5.9 10.3223C5.9 10.3245 5.9 10.3267 5.9 10.3289C5.9 10.3311 5.9 10.3333 5.9 10.3355C5.9 10.3377 5.9 10.3398 5.9 10.342C5.9 10.3442 5.9 10.3463 5.9 10.3485C5.9 10.3507 5.9 10.3528 5.9 10.3549C5.9 10.3571 5.9 10.3592 5.9 10.3613C5.9 10.3635 5.9 10.3656 5.9 10.3677C5.9 10.3698 5.9 10.3719 5.9 10.374C5.9 10.3761 5.9 10.3782 5.9 10.3803C5.9 10.3824 5.9 10.3844 5.9 10.3865C5.9 10.3886 5.9 10.3906 5.9 10.3927C5.9 10.3947 5.9 10.3968 5.9 10.3988C5.9 10.4009 5.9 10.4029 5.9 10.4049C5.9 10.407 5.9 10.409 5.9 10.411C5.9 10.413 5.9 10.415 5.9 10.417C5.9 10.419 5.9 10.421 5.9 10.423C5.9 10.425 5.9 10.427 5.9 10.4289C5.9 10.4309 5.9 10.4329 5.9 10.4348C5.9 10.4368 5.9 10.4387 5.9 10.4407C5.9 10.4426 5.9 10.4446 5.9 10.4465C5.9 10.4484 5.9 10.4504 5.9 10.4523C5.9 10.4542 5.9 10.4561 5.9 10.458C5.9 10.4599 5.9 10.4618 5.9 10.4637C5.9 10.4656 5.9 10.4675 5.9 10.4694C5.9 10.4713 5.9 10.4732 5.9 10.475C5.9 10.4769 5.9 10.4788 5.9 10.4806C5.9 10.4825 5.9 10.4843 5.9 10.4862C5.9 10.488 5.9 10.4898 5.9 10.4917C5.9 10.4935 5.9 10.4953 5.9 10.4972C5.9 10.499 5.9 10.5008 5.9 10.5026C5.9 10.5044 5.9 10.5062 5.9 10.508C5.9 10.5098 5.9 10.5116 5.9 10.5134C5.9 10.5152 5.9 10.5169 5.9 10.5187C5.9 10.5205 5.9 10.5222 5.9 10.524C5.9 10.5258 5.9 10.5275 5.9 10.5293C5.9 10.531 5.9 10.5328 5.9 10.5345C5.9 10.5362 5.9 10.538 5.9 10.5397C5.9 10.5414 5.9 10.5431 5.9 10.5448C5.9 10.5466 5.9 10.5483 5.9 10.55C5.9 10.5517 5.9 10.5534 5.9 10.5551C5.9 10.5567 5.9 10.5584 5.9 10.5601C5.9 10.5618 5.9 10.5635 5.9 10.5651C5.9 10.5668 5.9 10.5685 5.9 10.5701C5.9 10.5718 5.9 10.5734 5.9 10.5751C5.9 10.5767 5.9 10.5784 5.9 10.58C5.9 10.5816 5.9 10.5833 5.9 10.5849C5.9 10.5865 5.9 10.5882 5.9 10.5898C5.9 10.5914 5.9 10.593 5.9 10.5946C5.9 10.5962 5.9 10.5978 5.9 10.5994C5.9 10.601 5.9 10.6026 5.9 10.6042C5.9 10.6058 5.9 10.6073 5.9 10.6089C5.9 10.6105 5.9 10.6121 5.9 10.6136C5.9 10.6152 5.9 10.6167 5.9 10.6183C5.9 10.6199 5.9 10.6214 5.9 10.6229C5.9 10.6245 5.9 10.626 5.9 10.6276C5.9 10.6291 5.9 10.6306 5.9 10.6322C5.9 10.6337 5.9 10.6352 5.9 10.6367C5.9 10.6382 5.9 10.6398 5.9 10.6413C5.9 10.6428 5.9 10.6443 5.9 10.6458C5.9 10.6473 5.9 10.6488 5.9 10.6502C5.9 10.6517 5.9 10.6532 5.9 10.6547C5.9 10.6562 5.9 10.6576 5.9 10.6591C5.9 10.6606 5.9 10.6621 5.9 10.6635C5.9 10.665 5.9 10.6664 5.9 10.6679C5.9 10.6693 5.9 10.6708 5.9 10.6722C5.9 10.6737 5.9 10.6751 5.9 10.6765C5.9 10.678 5.9 10.6794 5.9 10.6808C5.9 10.6823 5.9 10.6837 5.9 10.6851C5.9 10.6865 5.9 10.6879 5.9 10.6893C5.9 10.6907 5.9 10.6922 5.9 10.6936C5.9 10.695 5.9 10.6964 5.9 10.6977C5.9 10.6991 5.9 10.7005 5.9 10.7019C5.9 10.7033 5.9 10.7047 5.9 10.7061C5.9 10.7074 5.9 10.7088 5.9 10.7102C5.9 10.7115 5.9 10.7129 5.9 10.7143C5.9 10.7156 5.9 10.717 5.9 10.7183C5.9 10.7197 5.9 10.721 5.9 10.7224C5.9 10.7237 5.9 10.7251 5.9 10.7264C5.9 10.7277 5.9 10.7291 5.9 10.7304C5.9 10.7317 5.9 10.7331 5.9 10.7344C5.9 10.7357 5.9 10.737 5.9 10.7384C5.9 10.7397 5.9 10.741 5.9 10.7423C5.9 10.7436 5.9 10.7449 5.9 10.7462C5.9 10.7475 5.9 10.7488 5.9 10.7501C5.9 10.7514 5.9 10.7527 5.9 10.754C5.9 10.7553 5.9 10.7566 5.9 10.7578C5.9 10.7591 5.9 10.7604 5.9 10.7617C5.9 10.7629 5.9 10.7642 5.9 10.7655C5.9 10.7668 5.9 10.768 5.9 10.7693C5.9 10.7705 5.9 10.7718 5.9 10.7731C5.9 10.7743 5.9 10.7756 5.9 10.7768C5.9 10.7781 5.9 10.7793 5.9 10.7806C5.9 10.7818 5.9 10.783 5.9 10.7843C5.9 10.7855 5.9 10.7868 5.9 10.788C5.9 10.7892 5.9 10.7904 5.9 10.7917C5.9 10.7929 5.9 10.7941 5.9 10.7953C5.9 10.7966 5.9 10.7978 5.9 10.799C5.9 10.8002 5.9 10.8014 5.9 10.8026C5.9 10.8038 5.9 10.805 5.9 10.8062C5.9 10.8074 5.9 10.8086 5.9 10.8098C5.9 10.811 5.9 10.8122 5.9 10.8134C5.9 10.8146 5.9 10.8158 5.9 10.817C5.9 10.8182 5.9 10.8194 5.9 10.8205C5.9 10.8217 5.9 10.8229 5.9 10.8241C5.9 10.8253 5.9 10.8264 5.9 10.8276C5.9 10.8288 5.9 10.83 5.9 10.8311C5.9 10.8323 5.9 10.8335 5.9 10.8346C5.9 10.8358 5.9 10.8369 5.9 10.8381C5.9 10.8393 5.9 10.8404 5.9 10.8416C5.9 10.8427 5.9 10.8439 5.9 10.845C5.9 10.8462 5.9 10.8473 5.9 10.8485C5.9 10.8496 5.9 10.8508 5.9 10.8519C5.9 10.853 5.9 10.8542 5.9 10.8553C5.9 10.8564 5.9 10.8576 5.9 10.8587C5.9 10.8598 5.9 10.861 5.9 10.8621C5.9 10.8632 5.9 10.8644 5.9 10.8655C5.9 10.8666 5.9 10.8677 5.9 10.8689C5.9 10.87 5.9 10.8711 5.9 10.8722C5.9 10.8733 5.9 10.8745 5.9 10.8756C5.9 10.8767 5.9 10.8778 5.9 10.8789C5.9 10.88 5.9 10.8811 5.9 10.8822C5.9 10.8833 5.9 10.8844 5.9 10.8855C5.9 10.8867 5.9 10.8878 5.9 10.8889C5.9 10.89 5.9 10.8911 5.9 10.8922C5.9 10.8933 5.9 10.8943 5.9 10.8954C5.9 10.8965 5.9 10.8976 5.9 10.8987C5.9 10.8998 5.9 10.9009 5.9 10.902C5.9 10.9031 5.9 10.9042 5.9 10.9053C5.9 10.9063 5.9 10.9074 5.9 10.9085C5.9 10.9096 5.9 10.9107 5.9 10.9118C5.9 10.9128 5.9 10.9139 5.9 10.915C5.9 10.9161 5.9 10.9172 5.9 10.9182C5.9 10.9193 5.9 10.9204 5.9 10.9215C5.9 10.9225 5.9 10.9236 5.9 10.9247C5.9 10.9258 5.9 10.9268 5.9 10.9279C5.9 10.929 5.9 10.93 5.9 10.9311C5.9 10.9322 5.9 10.9333 5.9 10.9343C5.9 10.9354 5.9 10.9365 5.9 10.9375C5.9 10.9386 5.9 10.9397 5.9 10.9407C5.9 10.9418 5.9 10.9428 5.9 10.9439C5.9 10.945 5.9 10.946 5.9 10.9471C5.9 10.9482 5.9 10.9492 5.9 10.9503C5.9 10.9513 5.9 10.9524 5.9 10.9534C5.9 10.9545 5.9 10.9556 5.9 10.9566C5.9 10.9577 5.9 10.9587 5.9 10.9598C5.9 10.9609 5.9 10.9619 5.9 10.963C5.9 10.964 5.9 10.9651 5.9 10.9661C5.9 10.9672 5.9 10.9682 5.9 10.9693C5.9 10.9703 5.9 10.9714 5.9 10.9725C5.9 10.9735 5.9 10.9746 5.9 10.9756C5.9 10.9767 5.9 10.9777 5.9 10.9788C5.9 10.9798 5.9 10.9809 5.9 10.9819C5.9 10.983 5.9 10.984 5.9 10.9851C5.9 10.9861 5.9 10.9872 5.9 10.9882C5.9 10.9893 5.9 10.9903 5.9 10.9914C5.9 10.9924 5.9 10.9935 5.9 10.9945C5.9 10.9956 5.9 10.9967 5.9 10.9977C5.9 10.9988 5.9 10.9998 5.9 11.0009C5.9 11.0019 5.9 11.003 5.9 11.004C5.9 11.0051 5.9 11.0061 5.9 11.0072C5.9 11.0082 5.9 11.0093 5.9 11.0103C5.9 11.0114 5.9 11.0124 5.9 11.0135C5.9 11.0145 5.9 11.0156 5.9 11.0167C5.9 11.0177 5.9 11.0188 5.9 11.0198C5.9 11.0209 5.9 11.0219 5.9 11.023C5.9 11.024 5.9 11.0251 5.9 11.0262C5.9 11.0272 5.9 11.0283 5.9 11.0293C5.9 11.0304 5.9 11.0315 5.9 11.0325C5.9 11.0336 5.9 11.0346 5.9 11.0357C5.9 11.0368 5.9 11.0378 5.9 11.0389C5.9 11.0399 5.9 11.041 5.9 11.0421C5.9 11.0431 5.9 11.0442 5.9 11.0453C5.9 11.0463 5.9 11.0474 5.9 11.0485C5.9 11.0495 5.9 11.0506 5.9 11.0517C5.9 11.0527 5.9 11.0538 5.9 11.0549C5.9 11.056 5.9 11.057 5.9 11.0581C5.9 11.0592 5.9 11.0602 5.9 11.0613C5.9 11.0624 5.9 11.0635 5.9 11.0646C5.9 11.0656 5.9 11.0667 5.9 11.0678C5.9 11.0689 5.9 11.07 5.9 11.071C5.9 11.0721 5.9 11.0732 5.9 11.0743C5.9 11.0754 5.9 11.0765 5.9 11.0775C5.9 11.0786 5.9 11.0797 5.9 11.0808C5.9 11.0819 5.9 11.083 5.9 11.0841C5.9 11.0852 5.9 11.0863 5.9 11.0874C5.9 11.0885 5.9 11.0896 5.9 11.0907C5.9 11.0918 5.9 11.0929 5.9 11.094C5.9 11.0951 5.9 11.0962 5.9 11.0973C5.9 11.0984 5.9 11.0995 5.9 11.1006C5.9 11.1017 5.9 11.1028 5.9 11.1039C5.9 11.105 5.9 11.1061 5.9 11.1072C5.9 11.1084 5.9 11.1095 5.9 11.1106C5.9 11.1117 5.9 11.1128 5.9 11.114C5.9 11.1151 5.9 11.1162 5.9 11.1173C5.9 11.1185 5.9 11.1196 5.9 11.1207C5.9 11.1218 5.9 11.123 5.9 11.1241C5.9 11.1252 5.9 11.1264 5.9 11.1275C5.9 11.1286 5.9 11.1298 5.9 11.1309C5.9 11.1321 5.9 11.1332 5.9 11.1344C5.9 11.1355 5.9 11.1367 5.9 11.1378C5.9 11.139 5.9 11.1401 5.9 11.1413C5.9 11.1424 5.9 11.1436 5.9 11.1447C5.9 11.1459 5.9 11.1471 5.9 11.1482C5.9 11.1494 5.9 11.1505 5.9 11.1517C5.9 11.1529 5.9 11.1541 5.9 11.1552C5.9 11.1564 5.9 11.1576 5.9 11.1588C5.9 11.1599 5.9 11.1611 5.9 11.1623C5.9 11.1635 5.9 11.1647 5.9 11.1659C5.9 11.167 5.9 11.1682 5.9 11.1694C5.9 11.1706 5.9 11.1718 5.9 11.173C5.9 11.1742 5.9 11.1754 5.9 11.1766C5.9 11.1778 5.9 11.179 5.9 11.1802C5.9 11.1814 5.9 11.1827 5.9 11.1839C5.9 11.1851 5.9 11.1863 5.9 11.1875C5.9 11.1887 5.9 11.19 5.9 11.1912C5.9 11.1924 5.9 11.1937 5.9 11.1949C5.9 11.1961 5.9 11.1974 5.9 11.1986C5.9 11.1998 5.9 11.2011 5.9 11.2023C5.9 11.2036 5.9 11.2048 5.9 11.2061C5.9 11.2073 5.9 11.2086 5.9 11.2098C5.9 11.2111 5.9 11.2123 5.9 11.2136C5.9 11.2149 5.9 11.2161 5.9 11.2174C5.9 11.2187 5.9 11.2199 5.9 11.2212C5.9 11.2225 5.9 11.2238 5.9 11.2251C5.9 11.2263 5.9 11.2276 5.9 11.2289C5.9 11.2302 5.9 11.2315 5.9 11.2328C5.9 11.2341 5.9 11.2354 5.9 11.2367C5.9 11.238 5.9 11.2393 5.9 11.2406C5.9 11.2419 5.9 11.2432 5.9 11.2446C5.9 11.2459 5.9 11.2472 5.9 11.2485C5.9 11.2498 5.9 11.2512 5.9 11.2525C5.9 11.2538 5.9 11.2552 5.9 11.2565C5.9 11.2578 5.9 11.2592 5.9 11.2605C5.9 11.2619 5.9 11.2632 5.9 11.2646C5.9 11.2659 5.9 11.2673 5.9 11.2687C5.9 11.27 5.9 11.2714 5.9 11.2728C5.9 11.2741 5.9 11.2755 5.9 11.2769C5.9 11.2783 5.9 11.2796 5.9 11.281C5.9 11.2824 5.9 11.2838 5.9 11.2852C5.9 11.2866 5.9 11.288 5.9 11.2894C5.9 11.2908 5.9 11.2922 5.9 11.2936C5.9 11.295 5.9 11.2964 5.9 11.2979C5.9 11.2993 5.9 11.3007 5.9 11.3021C5.9 11.3036 5.9 11.305 5.9 11.3064C5.9 11.3079 5.9 11.3093 5.9 11.3107C5.9 11.3122 5.9 11.3136 5.9 11.3151C5.9 11.3165 5.9 11.318 5.9 11.3195C5.9 11.3209 5.9 11.3224 5.9 11.3239C5.9 11.3253 5.9 11.3268 5.9 11.3283C5.9 11.3298 5.9 11.3313 5.9 11.3327C5.9 11.3342 5.9 11.3357 5.9 11.3372C5.9 11.3387 5.9 11.3402 5.9 11.3417C5.9 11.3432 5.9 11.3448 5.9 11.3463C5.9 11.3478 5.9 11.3493 5.9 11.3508C5.9 11.3524 5.9 11.3539 5.9 11.3554C5.9 11.357 5.9 11.3585 5.9 11.3601C5.9 11.3616 5.9 11.3632 5.9 11.3647C5.9 11.3663 5.9 11.3678 5.9 11.3694C5.9 11.371 5.9 11.3725 5.9 11.3741C5.9 11.3757 5.9 11.3773 5.9 11.3789C5.9 11.3804 5.9 11.382 5.9 11.3836C5.9 11.3852 5.9 11.3868 5.9 11.3884C5.9 11.39 5.9 11.3917 5.9 11.3933C5.9 11.3949 5.9 11.3965 5.9 11.3981C5.9 11.3998 5.9 11.4014 5.9 11.403C5.9 11.4047 5.9 11.4063 5.9 11.408C5.9 11.4096 5.9 11.4113 5.9 11.4129C5.9 11.4146 5.9 11.4163 5.9 11.4179C5.9 11.4196 5.9 11.4213 5.9 11.423C5.9 11.4246 5.9 11.4263 5.9 11.428C5.9 11.4297 5.9 11.4314 5.9 11.4331C5.9 11.4348 5.9 11.4365 5.9 11.4383C5.9 11.44 5.9 11.4417 5.9 11.4434C5.9 11.4451 5.9 11.4469 5.9 11.4486C5.9 11.4503 5.9 11.4521 5.9 11.4538C5.9 11.4556 5.9 11.4573 5.9 11.4591C5.9 11.4609 5.9 11.4626 5.9 11.4644C5.9 11.4662 5.9 11.468 5.9 11.4698C5.9 11.4715 5.9 11.4733 5.9 11.4751C5.9 11.4769 5.9 11.4787 5.9 11.4805C5.9 11.4823 5.9 11.4842 5.9 11.486C5.9 11.4878 5.9 11.4896 5.9 11.4915C5.9 11.4933 5.9 11.4951 5.9 11.497C5.9 11.4988 5.9 11.5007 5.9 11.5025C5.9 11.5044 5.9 11.5063 5.9 11.5081C5.9 11.51 5.9 11.5119 5.9 11.5138C5.9 11.5157 5.9 11.5175 5.9 11.5194C5.9 11.5213 5.9 11.5232 5.9 11.5251C5.9 11.5271 5.9 11.529 5.9 11.5309C5.9 11.5328 5.9 11.5347 5.9 11.5367C5.9 11.5386 5.9 11.5406 5.9 11.5425C5.9 11.5445 5.9 11.5464 5.9 11.5484C5.9 11.5503 5.9 11.5523 5.9 11.5543C5.9 11.5563 5.9 11.5582 5.9 11.5602C5.9 11.5622 5.9 11.5642 5.9 11.5662C5.9 11.5682 5.9 11.5702 5.9 11.5722C5.9 11.5742 5.9 11.5763 5.9 11.5783C5.9 11.5803 5.9 11.5824 5.9 11.5844C5.9 11.5865 5.9 11.5885 5.9 11.5906C5.9 11.5926 5.9 11.5947 5.9 11.5968C5.9 11.5988 5.9 11.6009 5.9 11.603C5.9 11.6051 5.9 11.6072 5.9 11.6093C5.9 11.6114 5.9 11.6135 5.9 11.6156C5.9 11.6177 5.9 11.6198 5.9 11.6219C5.9 11.6241 5.9 11.6262 5.9 11.6283C5.9 11.6305 5.9 11.6326 5.9 11.6348C5.9 11.637 5.9 11.6391 5.9 11.6413C5.9 11.6435 5.9 11.6456 5.9 11.6478C5.9 11.65 5.9 11.6522 5.9 11.6544C5.9 11.6566 5.9 11.6588 5.9 11.661C5.9 11.6633 5.9 11.6655 5.9 11.6677C5.9 11.6699 5.9 11.6722 5.9 11.6744C5.9 11.6767 5.9 11.6789 5.9 11.6812C5.9 11.6834 5.9 11.6857 5.9 11.688C5.9 11.6903 5.9 11.6926 5.9 11.6949C5.9 11.6971 5.9 11.6994 5.9 11.7018C5.9 11.7041 5.9 11.7064 5.9 11.7087C5.9 11.711 5.9 11.7134 5.9 11.7157C5.9 11.718 5.9 11.7204 5.9 11.7227C5.9 11.7251 5.9 11.7275 5.9 11.7298C5.9 11.7322 5.9 11.7346 5.9 11.737C5.9 11.7394 5.9 11.7417 5.9 11.7442C5.9 11.7466 5.9 11.749 5.9 11.7514C5.9 11.7538 5.9 11.7562 5.9 11.7587C5.9 11.7611 5.9 11.7636 5.9 11.766C5.9 11.7685 5.9 11.7709 5.9 11.7734C5.9 11.7759 5.9 11.7783 5.9 11.7808C5.9 11.7833 5.9 11.7858 5.9 11.7883C5.9 11.7908 5.9 11.7933 5.9 11.7958C5.9 11.7984 5.9 11.8009 5.9 11.8034C5.9 11.806 5.9 11.8085 5.9 11.811C5.9 11.8136 5.9 11.8162 5.9 11.8187C5.9 11.8213 5.9 11.8239 5.9 11.8265C5.9 11.8291 5.9 11.8317 5.9 11.8343C5.9 11.8369 5.9 11.8395 5.9 11.8421C5.9 11.8447 5.9 11.8474 5.9 11.85C5.9 11.8526 5.9 11.8553 5.9 11.8579C5.9 11.8606 5.9 11.8633 5.9 11.8659C5.9 11.8686 5.9 11.8713 5.9 11.874C5.9 11.8767 5.9 11.8794 5.9 11.8821C5.9 11.8848 5.9 11.8875 5.9 11.8903C5.9 11.893 5.9 11.8957 5.9 11.8985C5.9 11.9012 5.9 11.904 5.9 11.9067C5.9 11.9095 5.9 11.9123 5.9 11.9151C5.9 11.9178 5.9 11.9206 5.9 11.9234C5.9 11.9262 5.9 11.929 5.9 11.9319C5.9 11.9347 5.9 11.9375 5.9 11.9403C5.9 11.9432 5.9 11.946 5.9 11.9489C5.9 11.9517 5.9 11.9546 5.9 11.9575C5.9 11.9604 5.9 11.9633 5.9 11.9661C5.9 11.969 5.9 11.9719 5.9 11.9749C5.9 11.9778 5.9 11.9807 5.9 11.9836C5.9 11.9866 5.9 11.9895 5.9 11.9925C5.9 11.9954 5.9 11.9984 5.9 12.0013C5.9 12.0043 5.9 12.0073 5.9 12.0103C5.9 12.0133 5.9 12.0163 5.9 12.0193C5.9 12.0223 5.9 12.0253 5.9 12.0283C5.9 12.0314 5.9 12.0344 5.9 12.0375C5.9 12.0405 5.9 12.0436 5.9 12.0466C5.9 12.0497 5.9 12.0528 5.9 12.0559C5.9 12.059 5.9 12.0621 5.9 12.0652C5.9 12.0683 5.9 12.0714 5.9 12.0745C5.9 12.0776 5.9 12.0808 5.9 12.0839C5.9 12.0871 5.9 12.0902 5.9 12.0934C5.9 12.0966 5.9 12.0998 5.9 12.1029C5.9 12.1061 5.9 12.1093 5.9 12.1125C5.9 12.1158 5.9 12.119 5.9 12.1222C5.9 12.1254 5.9 12.1287 5.9 12.1319C5.9 12.1352 5.9 12.1384 5.9 12.1417C5.9 12.145 5.9 12.1483 5.9 12.1515C5.9 12.1548 5.9 12.1581 5.9 12.1615C5.9 12.1648 5.9 12.1681 5.9 12.1714C5.9 12.1748 5.9 12.1781 5.9 12.1815C5.9 12.1848 5.9 12.1882 5.9 12.1916C5.9 12.1949 5.9 12.1983 5.9 12.2017C5.9 12.2051 5.9 12.2085 5.9 12.2119C5.9 12.2154 5.9 12.2188 5.9 12.2222C5.9 12.2257 5.9 12.2291 5.9 12.2326C5.9 12.236 5.9 12.2395 5.9 12.243C5.9 12.2465 5.9 12.25 5.9 12.2535C5.9 12.257 5.9 12.2605 5.9 12.264C5.9 12.2676 5.9 12.2711 5.9 12.2746C5.9 12.2782 5.9 12.2817 5.9 12.2853C5.9 12.2889 5.9 12.2925 5.9 12.2961C5.9 12.2997 5.9 12.3033 5.9 12.3069C5.9 12.3105 5.9 12.3141 5.9 12.3178C5.9 12.3214 5.9 12.325 5.9 12.3287C5.9 12.3324 5.9 12.336 5.9 12.3397C5.9 12.3434 5.9 12.3471 5.9 12.3508C5.9 12.3545 5.9 12.3582 5.9 12.3619C5.9 12.3657 5.9 12.3694 5.9 12.3732C5.9 12.3769 5.9 12.3807 5.9 12.3845C5.9 12.3882 5.9 12.392 5.9 12.3958C5.9 12.3996 5.9 12.4034 5.9 12.4072C5.9 12.4111 5.9 12.4149 5.9 12.4187C5.9 12.4226 5.9 12.4264 5.9 12.4303C5.9 12.4342 5.9 12.438 5.9 12.4419C5.9 12.4458 5.9 12.4497 5.9 12.4536C5.9 12.4575 5.9 12.4615 5.9 12.4654C5.9 12.4693 5.9 12.4733 5.9 12.4773C5.9 12.4812 5.9 12.4852 5.9 12.4892C5.9 12.4932 5.9 12.4971 5.9 12.5012C5.9 12.5052 5.9 12.5092 5.9 12.5132C5.9 12.5172 5.9 12.5213 5.9 12.5253C5.9 12.5294 5.9 12.5335 5.9 12.5376C5.9 12.5416 5.9 12.5457 5.9 12.5498C5.9 12.5539 5.9 12.5581 5.9 12.5622C5.9 12.5663 5.9 12.5705 5.9 12.5746C5.9 12.5788 5.9 12.5829 5.9 12.5871C5.9 12.5913 5.9 12.5955 5.9 12.5997C5.9 12.6039 5.9 12.6081 5.9 12.6123C5.9 12.6165 5.9 12.6208 5.9 12.625C5.9 12.6293 5.9 12.6336 5.9 12.6378C5.9 12.6421 5.9 12.6464 5.9 12.6507C5.9 12.655 5.9 12.6593 5.9 12.6636C5.9 12.668 5.9 12.6723 5.9 12.6767C5.9 12.681 5.9 12.6854 5.9 12.6898C5.9 12.6941 5.9 12.6985 5.9 12.7029C5.9 12.7073 5.9 12.7118 5.9 12.7162C5.9 12.7206 5.9 12.7251 5.9 12.7295C5.9 12.734 5.9 12.7384 5.9 12.7429C5.9 12.7474 5.9 12.7519 5.9 12.7564C5.9 12.7609 5.9 12.7654 5.9 12.7699C5.9 12.7745 5.9 12.779 5.9 12.7836C5.9 12.7881 5.9 12.7927 5.9 12.7973C5.9 12.8019 5.9 12.8065 5.9 12.8111C5.9 12.8157 5.9 12.8203 5.9 12.825C5.9 12.8296 5.9 12.8342 5.9 12.8389C5.9 12.8436 5.9 12.8482 5.9 12.8529C5.9 12.8576 5.9 12.8623 5.9 12.867C5.9 12.8718 5.9 12.8765 5.9 12.8812C5.9 12.886 5.9 12.8907 5.9 12.8955C5.9 12.9003 5.9 12.9051 5.9 12.9099C5.9 12.9146 5.9 12.9195 5.9 12.9243C5.9 12.9291 5.9 12.9339 5.9 12.9388C5.9 12.9436 5.9 12.9485 5.9 12.9534C5.9 12.9583 5.9 12.9632 5.9 12.9681C5.9 12.973 5.9 12.9779 5.9 12.9828C5.9 12.9877 5.9 12.9927 5.9 12.9977C5.9 13.0026 5.9 13.0076 5.9 13.0126C5.9 13.0176 5.9 13.0226 5.9 13.0276C5.9 13.0326 5.9 13.0376 5.9 13.0427C5.9 13.0477 5.9 13.0528 5.9 13.0578C5.9 13.0629 5.9 13.068 5.9 13.0731C5.9 13.0782 5.9 13.0833 5.9 13.0884C5.9 13.0936 5.9 13.0987 5.9 13.1038C5.9 13.109 5.9 13.1142 5.9 13.1194C5.9 13.1245 5.9 13.1297 5.9 13.1349C5.9 13.1402 5.9 13.1454 5.9 13.1506C5.9 13.1559 5.9 13.1611 5.9 13.1664C5.9 13.1717 5.9 13.1769 5.9 13.1822C5.9 13.1875 5.9 13.1928 5.9 13.1982C5.9 13.2035 5.9 13.2088 5.9 13.2142C5.9 13.2195 5.9 13.2249 5.9 13.2303C5.9 13.2357 5.9 13.2411 5.9 13.2465C5.9 13.2519 5.9 13.2573 5.9 13.2628C5.9 13.2682 5.9 13.2737 5.9 13.2791C5.9 13.2846 5.9 13.2901 5.9 13.2956C5.9 13.3011 5.9 13.3066 5.9 13.3121C5.9 13.3177 5.9 13.3232 5.9 13.3288C5.9 13.3343 5.9 13.3399 5.9 13.3455C5.9 13.3511 5.9 13.3567 5.9 13.3623C5.9 13.3679 5.9 13.3736 5.9 13.3792C5.9 13.3849 5.9 13.3905 5.9 13.3962C5.9 13.4019 5.9 13.4076 5.9 13.4133C5.9 13.419 5.9 13.4247 5.9 13.4304C5.9 13.4362 5.9 13.4419 5.9 13.4477C5.9 13.4535 5.9 13.4593 5.9 13.4651C5.9 13.4709 5.9 13.4767 5.9 13.4825C5.9 13.4883 5.9 13.4942 5.9 13.5H7.1C7.1 13.4942 7.1 13.4883 7.1 13.4825C7.1 13.4767 7.1 13.4709 7.1 13.4651C7.1 13.4593 7.1 13.4535 7.1 13.4477C7.1 13.4419 7.1 13.4362 7.1 13.4304C7.1 13.4247 7.1 13.419 7.1 13.4133C7.1 13.4076 7.1 13.4019 7.1 13.3962C7.1 13.3905 7.1 13.3849 7.1 13.3792C7.1 13.3736 7.1 13.3679 7.1 13.3623C7.1 13.3567 7.1 13.3511 7.1 13.3455C7.1 13.3399 7.1 13.3343 7.1 13.3288C7.1 13.3232 7.1 13.3177 7.1 13.3121C7.1 13.3066 7.1 13.3011 7.1 13.2956C7.1 13.2901 7.1 13.2846 7.1 13.2791C7.1 13.2737 7.1 13.2682 7.1 13.2628C7.1 13.2573 7.1 13.2519 7.1 13.2465C7.1 13.2411 7.1 13.2357 7.1 13.2303C7.1 13.2249 7.1 13.2195 7.1 13.2142C7.1 13.2088 7.1 13.2035 7.1 13.1982C7.1 13.1928 7.1 13.1875 7.1 13.1822C7.1 13.1769 7.1 13.1717 7.1 13.1664C7.1 13.1611 7.1 13.1559 7.1 13.1506C7.1 13.1454 7.1 13.1402 7.1 13.1349C7.1 13.1297 7.1 13.1245 7.1 13.1194C7.1 13.1142 7.1 13.109 7.1 13.1038C7.1 13.0987 7.1 13.0936 7.1 13.0884C7.1 13.0833 7.1 13.0782 7.1 13.0731C7.1 13.068 7.1 13.0629 7.1 13.0578C7.1 13.0528 7.1 13.0477 7.1 13.0427C7.1 13.0376 7.1 13.0326 7.1 13.0276C7.1 13.0226 7.1 13.0176 7.1 13.0126C7.1 13.0076 7.1 13.0026 7.1 12.9977C7.1 12.9927 7.1 12.9877 7.1 12.9828C7.1 12.9779 7.1 12.973 7.1 12.9681C7.1 12.9632 7.1 12.9583 7.1 12.9534C7.1 12.9485 7.1 12.9436 7.1 12.9388C7.1 12.9339 7.1 12.9291 7.1 12.9243C7.1 12.9195 7.1 12.9146 7.1 12.9099C7.1 12.9051 7.1 12.9003 7.1 12.8955C7.1 12.8907 7.1 12.886 7.1 12.8812C7.1 12.8765 7.1 12.8718 7.1 12.867C7.1 12.8623 7.1 12.8576 7.1 12.8529C7.1 12.8482 7.1 12.8436 7.1 12.8389C7.1 12.8342 7.1 12.8296 7.1 12.825C7.1 12.8203 7.1 12.8157 7.1 12.8111C7.1 12.8065 7.1 12.8019 7.1 12.7973C7.1 12.7927 7.1 12.7881 7.1 12.7836C7.1 12.779 7.1 12.7745 7.1 12.7699C7.1 12.7654 7.1 12.7609 7.1 12.7564C7.1 12.7519 7.1 12.7474 7.1 12.7429C7.1 12.7384 7.1 12.734 7.1 12.7295C7.1 12.7251 7.1 12.7206 7.1 12.7162C7.1 12.7118 7.1 12.7073 7.1 12.7029C7.1 12.6985 7.1 12.6941 7.1 12.6898C7.1 12.6854 7.1 12.681 7.1 12.6767C7.1 12.6723 7.1 12.668 7.1 12.6636C7.1 12.6593 7.1 12.655 7.1 12.6507C7.1 12.6464 7.1 12.6421 7.1 12.6378C7.1 12.6336 7.1 12.6293 7.1 12.625C7.1 12.6208 7.1 12.6165 7.1 12.6123C7.1 12.6081 7.1 12.6039 7.1 12.5997C7.1 12.5955 7.1 12.5913 7.1 12.5871C7.1 12.5829 7.1 12.5788 7.1 12.5746C7.1 12.5705 7.1 12.5663 7.1 12.5622C7.1 12.5581 7.1 12.5539 7.1 12.5498C7.1 12.5457 7.1 12.5416 7.1 12.5376C7.1 12.5335 7.1 12.5294 7.1 12.5253C7.1 12.5213 7.1 12.5172 7.1 12.5132C7.1 12.5092 7.1 12.5052 7.1 12.5012C7.1 12.4971 7.1 12.4932 7.1 12.4892C7.1 12.4852 7.1 12.4812 7.1 12.4773C7.1 12.4733 7.1 12.4693 7.1 12.4654C7.1 12.4615 7.1 12.4575 7.1 12.4536C7.1 12.4497 7.1 12.4458 7.1 12.4419C7.1 12.438 7.1 12.4342 7.1 12.4303C7.1 12.4264 7.1 12.4226 7.1 12.4187C7.1 12.4149 7.1 12.4111 7.1 12.4072C7.1 12.4034 7.1 12.3996 7.1 12.3958C7.1 12.392 7.1 12.3882 7.1 12.3845C7.1 12.3807 7.1 12.3769 7.1 12.3732C7.1 12.3694 7.1 12.3657 7.1 12.3619C7.1 12.3582 7.1 12.3545 7.1 12.3508C7.1 12.3471 7.1 12.3434 7.1 12.3397C7.1 12.336 7.1 12.3324 7.1 12.3287C7.1 12.325 7.1 12.3214 7.1 12.3178C7.1 12.3141 7.1 12.3105 7.1 12.3069C7.1 12.3033 7.1 12.2997 7.1 12.2961C7.1 12.2925 7.1 12.2889 7.1 12.2853C7.1 12.2817 7.1 12.2782 7.1 12.2746C7.1 12.2711 7.1 12.2676 7.1 12.264C7.1 12.2605 7.1 12.257 7.1 12.2535C7.1 12.25 7.1 12.2465 7.1 12.243C7.1 12.2395 7.1 12.236 7.1 12.2326C7.1 12.2291 7.1 12.2257 7.1 12.2222C7.1 12.2188 7.1 12.2154 7.1 12.2119C7.1 12.2085 7.1 12.2051 7.1 12.2017C7.1 12.1983 7.1 12.1949 7.1 12.1916C7.1 12.1882 7.1 12.1848 7.1 12.1815C7.1 12.1781 7.1 12.1748 7.1 12.1714C7.1 12.1681 7.1 12.1648 7.1 12.1615C7.1 12.1581 7.1 12.1548 7.1 12.1515C7.1 12.1483 7.1 12.145 7.1 12.1417C7.1 12.1384 7.1 12.1352 7.1 12.1319C7.1 12.1287 7.1 12.1254 7.1 12.1222C7.1 12.119 7.1 12.1158 7.1 12.1125C7.1 12.1093 7.1 12.1061 7.1 12.1029C7.1 12.0998 7.1 12.0966 7.1 12.0934C7.1 12.0902 7.1 12.0871 7.1 12.0839C7.1 12.0808 7.1 12.0776 7.1 12.0745C7.1 12.0714 7.1 12.0683 7.1 12.0652C7.1 12.0621 7.1 12.059 7.1 12.0559C7.1 12.0528 7.1 12.0497 7.1 12.0466C7.1 12.0436 7.1 12.0405 7.1 12.0375C7.1 12.0344 7.1 12.0314 7.1 12.0283C7.1 12.0253 7.1 12.0223 7.1 12.0193C7.1 12.0163 7.1 12.0133 7.1 12.0103C7.1 12.0073 7.1 12.0043 7.1 12.0013C7.1 11.9984 7.1 11.9954 7.1 11.9925C7.1 11.9895 7.1 11.9866 7.1 11.9836C7.1 11.9807 7.1 11.9778 7.1 11.9749C7.1 11.9719 7.1 11.969 7.1 11.9661C7.1 11.9633 7.1 11.9604 7.1 11.9575C7.1 11.9546 7.1 11.9517 7.1 11.9489C7.1 11.946 7.1 11.9432 7.1 11.9403C7.1 11.9375 7.1 11.9347 7.1 11.9319C7.1 11.929 7.1 11.9262 7.1 11.9234C7.1 11.9206 7.1 11.9178 7.1 11.9151C7.1 11.9123 7.1 11.9095 7.1 11.9067C7.1 11.904 7.1 11.9012 7.1 11.8985C7.1 11.8957 7.1 11.893 7.1 11.8903C7.1 11.8875 7.1 11.8848 7.1 11.8821C7.1 11.8794 7.1 11.8767 7.1 11.874C7.1 11.8713 7.1 11.8686 7.1 11.8659C7.1 11.8633 7.1 11.8606 7.1 11.8579C7.1 11.8553 7.1 11.8526 7.1 11.85C7.1 11.8474 7.1 11.8447 7.1 11.8421C7.1 11.8395 7.1 11.8369 7.1 11.8343C7.1 11.8317 7.1 11.8291 7.1 11.8265C7.1 11.8239 7.1 11.8213 7.1 11.8187C7.1 11.8162 7.1 11.8136 7.1 11.811C7.1 11.8085 7.1 11.806 7.1 11.8034C7.1 11.8009 7.1 11.7984 7.1 11.7958C7.1 11.7933 7.1 11.7908 7.1 11.7883C7.1 11.7858 7.1 11.7833 7.1 11.7808C7.1 11.7783 7.1 11.7759 7.1 11.7734C7.1 11.7709 7.1 11.7685 7.1 11.766C7.1 11.7636 7.1 11.7611 7.1 11.7587C7.1 11.7562 7.1 11.7538 7.1 11.7514C7.1 11.749 7.1 11.7466 7.1 11.7442C7.1 11.7417 7.1 11.7394 7.1 11.737C7.1 11.7346 7.1 11.7322 7.1 11.7298C7.1 11.7275 7.1 11.7251 7.1 11.7227C7.1 11.7204 7.1 11.718 7.1 11.7157C7.1 11.7134 7.1 11.711 7.1 11.7087C7.1 11.7064 7.1 11.7041 7.1 11.7018C7.1 11.6994 7.1 11.6971 7.1 11.6949C7.1 11.6926 7.1 11.6903 7.1 11.688C7.1 11.6857 7.1 11.6834 7.1 11.6812C7.1 11.6789 7.1 11.6767 7.1 11.6744C7.1 11.6722 7.1 11.6699 7.1 11.6677C7.1 11.6655 7.1 11.6633 7.1 11.661C7.1 11.6588 7.1 11.6566 7.1 11.6544C7.1 11.6522 7.1 11.65 7.1 11.6478C7.1 11.6456 7.1 11.6435 7.1 11.6413C7.1 11.6391 7.1 11.637 7.1 11.6348C7.1 11.6326 7.1 11.6305 7.1 11.6283C7.1 11.6262 7.1 11.6241 7.1 11.6219C7.1 11.6198 7.1 11.6177 7.1 11.6156C7.1 11.6135 7.1 11.6114 7.1 11.6093C7.1 11.6072 7.1 11.6051 7.1 11.603C7.1 11.6009 7.1 11.5988 7.1 11.5968C7.1 11.5947 7.1 11.5926 7.1 11.5906C7.1 11.5885 7.1 11.5865 7.1 11.5844C7.1 11.5824 7.1 11.5803 7.1 11.5783C7.1 11.5763 7.1 11.5742 7.1 11.5722C7.1 11.5702 7.1 11.5682 7.1 11.5662C7.1 11.5642 7.1 11.5622 7.1 11.5602C7.1 11.5582 7.1 11.5563 7.1 11.5543C7.1 11.5523 7.1 11.5503 7.1 11.5484C7.1 11.5464 7.1 11.5445 7.1 11.5425C7.1 11.5406 7.1 11.5386 7.1 11.5367C7.1 11.5347 7.1 11.5328 7.1 11.5309C7.1 11.529 7.1 11.5271 7.1 11.5251C7.1 11.5232 7.1 11.5213 7.1 11.5194C7.1 11.5175 7.1 11.5157 7.1 11.5138C7.1 11.5119 7.1 11.51 7.1 11.5081C7.1 11.5063 7.1 11.5044 7.1 11.5025C7.1 11.5007 7.1 11.4988 7.1 11.497C7.1 11.4951 7.1 11.4933 7.1 11.4915C7.1 11.4896 7.1 11.4878 7.1 11.486C7.1 11.4842 7.1 11.4823 7.1 11.4805C7.1 11.4787 7.1 11.4769 7.1 11.4751C7.1 11.4733 7.1 11.4715 7.1 11.4698C7.1 11.468 7.1 11.4662 7.1 11.4644C7.1 11.4626 7.1 11.4609 7.1 11.4591C7.1 11.4573 7.1 11.4556 7.1 11.4538C7.1 11.4521 7.1 11.4503 7.1 11.4486C7.1 11.4469 7.1 11.4451 7.1 11.4434C7.1 11.4417 7.1 11.44 7.1 11.4383C7.1 11.4365 7.1 11.4348 7.1 11.4331C7.1 11.4314 7.1 11.4297 7.1 11.428C7.1 11.4263 7.1 11.4246 7.1 11.423C7.1 11.4213 7.1 11.4196 7.1 11.4179C7.1 11.4163 7.1 11.4146 7.1 11.4129C7.1 11.4113 7.1 11.4096 7.1 11.408C7.1 11.4063 7.1 11.4047 7.1 11.403C7.1 11.4014 7.1 11.3998 7.1 11.3981C7.1 11.3965 7.1 11.3949 7.1 11.3933C7.1 11.3917 7.1 11.39 7.1 11.3884C7.1 11.3868 7.1 11.3852 7.1 11.3836C7.1 11.382 7.1 11.3804 7.1 11.3789C7.1 11.3773 7.1 11.3757 7.1 11.3741C7.1 11.3725 7.1 11.371 7.1 11.3694C7.1 11.3678 7.1 11.3663 7.1 11.3647C7.1 11.3632 7.1 11.3616 7.1 11.3601C7.1 11.3585 7.1 11.357 7.1 11.3554C7.1 11.3539 7.1 11.3524 7.1 11.3508C7.1 11.3493 7.1 11.3478 7.1 11.3463C7.1 11.3448 7.1 11.3432 7.1 11.3417C7.1 11.3402 7.1 11.3387 7.1 11.3372C7.1 11.3357 7.1 11.3342 7.1 11.3327C7.1 11.3313 7.1 11.3298 7.1 11.3283C7.1 11.3268 7.1 11.3253 7.1 11.3239C7.1 11.3224 7.1 11.3209 7.1 11.3195C7.1 11.318 7.1 11.3165 7.1 11.3151C7.1 11.3136 7.1 11.3122 7.1 11.3107C7.1 11.3093 7.1 11.3079 7.1 11.3064C7.1 11.305 7.1 11.3036 7.1 11.3021C7.1 11.3007 7.1 11.2993 7.1 11.2979C7.1 11.2964 7.1 11.295 7.1 11.2936C7.1 11.2922 7.1 11.2908 7.1 11.2894C7.1 11.288 7.1 11.2866 7.1 11.2852C7.1 11.2838 7.1 11.2824 7.1 11.281C7.1 11.2796 7.1 11.2783 7.1 11.2769C7.1 11.2755 7.1 11.2741 7.1 11.2728C7.1 11.2714 7.1 11.27 7.1 11.2687C7.1 11.2673 7.1 11.2659 7.1 11.2646C7.1 11.2632 7.1 11.2619 7.1 11.2605C7.1 11.2592 7.1 11.2578 7.1 11.2565C7.1 11.2552 7.1 11.2538 7.1 11.2525C7.1 11.2512 7.1 11.2498 7.1 11.2485C7.1 11.2472 7.1 11.2459 7.1 11.2446C7.1 11.2432 7.1 11.2419 7.1 11.2406C7.1 11.2393 7.1 11.238 7.1 11.2367C7.1 11.2354 7.1 11.2341 7.1 11.2328C7.1 11.2315 7.1 11.2302 7.1 11.2289C7.1 11.2276 7.1 11.2263 7.1 11.2251C7.1 11.2238 7.1 11.2225 7.1 11.2212C7.1 11.2199 7.1 11.2187 7.1 11.2174C7.1 11.2161 7.1 11.2149 7.1 11.2136C7.1 11.2123 7.1 11.2111 7.1 11.2098C7.1 11.2086 7.1 11.2073 7.1 11.2061C7.1 11.2048 7.1 11.2036 7.1 11.2023C7.1 11.2011 7.1 11.1998 7.1 11.1986C7.1 11.1974 7.1 11.1961 7.1 11.1949C7.1 11.1937 7.1 11.1924 7.1 11.1912C7.1 11.19 7.1 11.1887 7.1 11.1875C7.1 11.1863 7.1 11.1851 7.1 11.1839C7.1 11.1827 7.1 11.1814 7.1 11.1802C7.1 11.179 7.1 11.1778 7.1 11.1766C7.1 11.1754 7.1 11.1742 7.1 11.173C7.1 11.1718 7.1 11.1706 7.1 11.1694C7.1 11.1682 7.1 11.167 7.1 11.1659C7.1 11.1647 7.1 11.1635 7.1 11.1623C7.1 11.1611 7.1 11.1599 7.1 11.1588C7.1 11.1576 7.1 11.1564 7.1 11.1552C7.1 11.1541 7.1 11.1529 7.1 11.1517C7.1 11.1505 7.1 11.1494 7.1 11.1482C7.1 11.1471 7.1 11.1459 7.1 11.1447C7.1 11.1436 7.1 11.1424 7.1 11.1413C7.1 11.1401 7.1 11.139 7.1 11.1378C7.1 11.1367 7.1 11.1355 7.1 11.1344C7.1 11.1332 7.1 11.1321 7.1 11.1309C7.1 11.1298 7.1 11.1286 7.1 11.1275C7.1 11.1264 7.1 11.1252 7.1 11.1241C7.1 11.123 7.1 11.1218 7.1 11.1207C7.1 11.1196 7.1 11.1185 7.1 11.1173C7.1 11.1162 7.1 11.1151 7.1 11.114C7.1 11.1128 7.1 11.1117 7.1 11.1106C7.1 11.1095 7.1 11.1084 7.1 11.1072C7.1 11.1061 7.1 11.105 7.1 11.1039C7.1 11.1028 7.1 11.1017 7.1 11.1006C7.1 11.0995 7.1 11.0984 7.1 11.0973C7.1 11.0962 7.1 11.0951 7.1 11.094C7.1 11.0929 7.1 11.0918 7.1 11.0907C7.1 11.0896 7.1 11.0885 7.1 11.0874C7.1 11.0863 7.1 11.0852 7.1 11.0841C7.1 11.083 7.1 11.0819 7.1 11.0808C7.1 11.0797 7.1 11.0786 7.1 11.0775C7.1 11.0765 7.1 11.0754 7.1 11.0743C7.1 11.0732 7.1 11.0721 7.1 11.071C7.1 11.07 7.1 11.0689 7.1 11.0678C7.1 11.0667 7.1 11.0656 7.1 11.0646C7.1 11.0635 7.1 11.0624 7.1 11.0613C7.1 11.0602 7.1 11.0592 7.1 11.0581C7.1 11.057 7.1 11.056 7.1 11.0549C7.1 11.0538 7.1 11.0527 7.1 11.0517C7.1 11.0506 7.1 11.0495 7.1 11.0485C7.1 11.0474 7.1 11.0463 7.1 11.0453C7.1 11.0442 7.1 11.0431 7.1 11.0421C7.1 11.041 7.1 11.0399 7.1 11.0389C7.1 11.0378 7.1 11.0368 7.1 11.0357C7.1 11.0346 7.1 11.0336 7.1 11.0325C7.1 11.0315 7.1 11.0304 7.1 11.0293C7.1 11.0283 7.1 11.0272 7.1 11.0262C7.1 11.0251 7.1 11.024 7.1 11.023C7.1 11.0219 7.1 11.0209 7.1 11.0198C7.1 11.0188 7.1 11.0177 7.1 11.0167C7.1 11.0156 7.1 11.0145 7.1 11.0135C7.1 11.0124 7.1 11.0114 7.1 11.0103C7.1 11.0093 7.1 11.0082 7.1 11.0072C7.1 11.0061 7.1 11.0051 7.1 11.004C7.1 11.003 7.1 11.0019 7.1 11.0009C7.1 10.9998 7.1 10.9988 7.1 10.9977C7.1 10.9967 7.1 10.9956 7.1 10.9945C7.1 10.9935 7.1 10.9924 7.1 10.9914C7.1 10.9903 7.1 10.9893 7.1 10.9882C7.1 10.9872 7.1 10.9861 7.1 10.9851C7.1 10.984 7.1 10.983 7.1 10.9819C7.1 10.9809 7.1 10.9798 7.1 10.9788C7.1 10.9777 7.1 10.9767 7.1 10.9756C7.1 10.9746 7.1 10.9735 7.1 10.9725C7.1 10.9714 7.1 10.9703 7.1 10.9693C7.1 10.9682 7.1 10.9672 7.1 10.9661C7.1 10.9651 7.1 10.964 7.1 10.963C7.1 10.9619 7.1 10.9609 7.1 10.9598C7.1 10.9587 7.1 10.9577 7.1 10.9566C7.1 10.9556 7.1 10.9545 7.1 10.9534C7.1 10.9524 7.1 10.9513 7.1 10.9503C7.1 10.9492 7.1 10.9482 7.1 10.9471C7.1 10.946 7.1 10.945 7.1 10.9439C7.1 10.9428 7.1 10.9418 7.1 10.9407C7.1 10.9397 7.1 10.9386 7.1 10.9375C7.1 10.9365 7.1 10.9354 7.1 10.9343C7.1 10.9333 7.1 10.9322 7.1 10.9311C7.1 10.93 7.1 10.929 7.1 10.9279C7.1 10.9268 7.1 10.9258 7.1 10.9247C7.1 10.9236 7.1 10.9225 7.1 10.9215C7.1 10.9204 7.1 10.9193 7.1 10.9182C7.1 10.9172 7.1 10.9161 7.1 10.915C7.1 10.9139 7.1 10.9128 7.1 10.9118C7.1 10.9107 7.1 10.9096 7.1 10.9085C7.1 10.9074 7.1 10.9063 7.1 10.9053C7.1 10.9042 7.1 10.9031 7.1 10.902C7.1 10.9009 7.1 10.8998 7.1 10.8987C7.1 10.8976 7.1 10.8965 7.1 10.8954C7.1 10.8943 7.1 10.8933 7.1 10.8922C7.1 10.8911 7.1 10.89 7.1 10.8889C7.1 10.8878 7.1 10.8867 7.1 10.8855C7.1 10.8844 7.1 10.8833 7.1 10.8822C7.1 10.8811 7.1 10.88 7.1 10.8789C7.1 10.8778 7.1 10.8767 7.1 10.8756C7.1 10.8745 7.1 10.8733 7.1 10.8722C7.1 10.8711 7.1 10.87 7.1 10.8689C7.1 10.8677 7.1 10.8666 7.1 10.8655C7.1 10.8644 7.1 10.8632 7.1 10.8621C7.1 10.861 7.1 10.8598 7.1 10.8587C7.1 10.8576 7.1 10.8564 7.1 10.8553C7.1 10.8542 7.1 10.853 7.1 10.8519C7.1 10.8508 7.1 10.8496 7.1 10.8485C7.1 10.8473 7.1 10.8462 7.1 10.845C7.1 10.8439 7.1 10.8427 7.1 10.8416C7.1 10.8404 7.1 10.8393 7.1 10.8381C7.1 10.8369 7.1 10.8358 7.1 10.8346C7.1 10.8335 7.1 10.8323 7.1 10.8311C7.1 10.83 7.1 10.8288 7.1 10.8276C7.1 10.8264 7.1 10.8253 7.1 10.8241C7.1 10.8229 7.1 10.8217 7.1 10.8205C7.1 10.8194 7.1 10.8182 7.1 10.817C7.1 10.8158 7.1 10.8146 7.1 10.8134C7.1 10.8122 7.1 10.811 7.1 10.8098C7.1 10.8086 7.1 10.8074 7.1 10.8062C7.1 10.805 7.1 10.8038 7.1 10.8026C7.1 10.8014 7.1 10.8002 7.1 10.799C7.1 10.7978 7.1 10.7966 7.1 10.7953C7.1 10.7941 7.1 10.7929 7.1 10.7917C7.1 10.7904 7.1 10.7892 7.1 10.788C7.1 10.7868 7.1 10.7855 7.1 10.7843C7.1 10.783 7.1 10.7818 7.1 10.7806C7.1 10.7793 7.1 10.7781 7.1 10.7768C7.1 10.7756 7.1 10.7743 7.1 10.7731C7.1 10.7718 7.1 10.7705 7.1 10.7693C7.1 10.768 7.1 10.7668 7.1 10.7655C7.1 10.7642 7.1 10.7629 7.1 10.7617C7.1 10.7604 7.1 10.7591 7.1 10.7578C7.1 10.7566 7.1 10.7553 7.1 10.754C7.1 10.7527 7.1 10.7514 7.1 10.7501C7.1 10.7488 7.1 10.7475 7.1 10.7462C7.1 10.7449 7.1 10.7436 7.1 10.7423C7.1 10.741 7.1 10.7397 7.1 10.7384C7.1 10.737 7.1 10.7357 7.1 10.7344C7.1 10.7331 7.1 10.7317 7.1 10.7304C7.1 10.7291 7.1 10.7277 7.1 10.7264C7.1 10.7251 7.1 10.7237 7.1 10.7224C7.1 10.721 7.1 10.7197 7.1 10.7183C7.1 10.717 7.1 10.7156 7.1 10.7143C7.1 10.7129 7.1 10.7115 7.1 10.7102C7.1 10.7088 7.1 10.7074 7.1 10.7061C7.1 10.7047 7.1 10.7033 7.1 10.7019C7.1 10.7005 7.1 10.6991 7.1 10.6977C7.1 10.6964 7.1 10.695 7.1 10.6936C7.1 10.6922 7.1 10.6907 7.1 10.6893C7.1 10.6879 7.1 10.6865 7.1 10.6851C7.1 10.6837 7.1 10.6823 7.1 10.6808C7.1 10.6794 7.1 10.678 7.1 10.6765C7.1 10.6751 7.1 10.6737 7.1 10.6722C7.1 10.6708 7.1 10.6693 7.1 10.6679C7.1 10.6664 7.1 10.665 7.1 10.6635C7.1 10.6621 7.1 10.6606 7.1 10.6591C7.1 10.6576 7.1 10.6562 7.1 10.6547C7.1 10.6532 7.1 10.6517 7.1 10.6502C7.1 10.6488 7.1 10.6473 7.1 10.6458C7.1 10.6443 7.1 10.6428 7.1 10.6413C7.1 10.6398 7.1 10.6382 7.1 10.6367C7.1 10.6352 7.1 10.6337 7.1 10.6322C7.1 10.6306 7.1 10.6291 7.1 10.6276C7.1 10.626 7.1 10.6245 7.1 10.6229C7.1 10.6214 7.1 10.6199 7.1 10.6183C7.1 10.6167 7.1 10.6152 7.1 10.6136C7.1 10.6121 7.1 10.6105 7.1 10.6089C7.1 10.6073 7.1 10.6058 7.1 10.6042C7.1 10.6026 7.1 10.601 7.1 10.5994C7.1 10.5978 7.1 10.5962 7.1 10.5946C7.1 10.593 7.1 10.5914 7.1 10.5898C7.1 10.5882 7.1 10.5865 7.1 10.5849C7.1 10.5833 7.1 10.5816 7.1 10.58C7.1 10.5784 7.1 10.5767 7.1 10.5751C7.1 10.5734 7.1 10.5718 7.1 10.5701C7.1 10.5685 7.1 10.5668 7.1 10.5651C7.1 10.5635 7.1 10.5618 7.1 10.5601C7.1 10.5584 7.1 10.5567 7.1 10.5551C7.1 10.5534 7.1 10.5517 7.1 10.55C7.1 10.5483 7.1 10.5466 7.1 10.5448C7.1 10.5431 7.1 10.5414 7.1 10.5397C7.1 10.538 7.1 10.5362 7.1 10.5345C7.1 10.5328 7.1 10.531 7.1 10.5293C7.1 10.5275 7.1 10.5258 7.1 10.524C7.1 10.5222 7.1 10.5205 7.1 10.5187C7.1 10.5169 7.1 10.5152 7.1 10.5134C7.1 10.5116 7.1 10.5098 7.1 10.508C7.1 10.5062 7.1 10.5044 7.1 10.5026C7.1 10.5008 7.1 10.499 7.1 10.4972C7.1 10.4953 7.1 10.4935 7.1 10.4917C7.1 10.4898 7.1 10.488 7.1 10.4862C7.1 10.4843 7.1 10.4825 7.1 10.4806C7.1 10.4788 7.1 10.4769 7.1 10.475C7.1 10.4732 7.1 10.4713 7.1 10.4694C7.1 10.4675 7.1 10.4656 7.1 10.4637C7.1 10.4618 7.1 10.4599 7.1 10.458C7.1 10.4561 7.1 10.4542 7.1 10.4523C7.1 10.4504 7.1 10.4484 7.1 10.4465C7.1 10.4446 7.1 10.4426 7.1 10.4407C7.1 10.4387 7.1 10.4368 7.1 10.4348C7.1 10.4329 7.1 10.4309 7.1 10.4289C7.1 10.427 7.1 10.425 7.1 10.423C7.1 10.421 7.1 10.419 7.1 10.417C7.1 10.415 7.1 10.413 7.1 10.411C7.1 10.409 7.1 10.407 7.1 10.4049C7.1 10.4029 7.1 10.4009 7.1 10.3988C7.1 10.3968 7.1 10.3947 7.1 10.3927C7.1 10.3906 7.1 10.3886 7.1 10.3865C7.1 10.3844 7.1 10.3824 7.1 10.3803C7.1 10.3782 7.1 10.3761 7.1 10.374C7.1 10.3719 7.1 10.3698 7.1 10.3677C7.1 10.3656 7.1 10.3635 7.1 10.3613C7.1 10.3592 7.1 10.3571 7.1 10.3549C7.1 10.3528 7.1 10.3507 7.1 10.3485C7.1 10.3463 7.1 10.3442 7.1 10.342C7.1 10.3398 7.1 10.3377 7.1 10.3355C7.1 10.3333 7.1 10.3311 7.1 10.3289C7.1 10.3267 7.1 10.3245 7.1 10.3223C7.1 10.3201 7.1 10.3178 7.1 10.3156C7.1 10.3134 7.1 10.3112 7.1 10.3089C7.1 10.3067 7.1 10.3044 7.1 10.3022C7.1 10.2999 7.1 10.2976 7.1 10.2954C7.1 10.2931 7.1 10.2908 7.1 10.2885C7.1 10.2862 7.1 10.2839 7.1 10.2816C7.1 10.2793 7.1 10.277 7.1 10.2747C7.1 10.2723 7.1 10.27 7.1 10.2677C7.1 10.2653 7.1 10.263 7.1 10.2606C7.1 10.2583 7.1 10.2559 7.1 10.2536C7.1 10.2512 7.1 10.2488 7.1 10.2464C7.1 10.244 7.1 10.2417 7.1 10.2393C7.1 10.2369 7.1 10.2344 7.1 10.232C7.1 10.2296 7.1 10.2272 7.1 10.2248C7.1 10.2223 7.1 10.2199 7.1 10.2174C7.1 10.215 7.1 10.2125 7.1 10.2101C7.1 10.2076 7.1 10.2051 7.1 10.2026C7.1 10.2001 7.1 10.1977 7.1 10.1952C7.1 10.1927 7.1 10.1901 7.1 10.1876C7.1 10.1851 7.1 10.1826 7.1 10.1801C7.1 10.1775 7.1 10.175 7.1 10.1724C7.1 10.1699 7.1 10.1673 7.1 10.1647C7.1 10.1622 7.1 10.1596 7.1 10.157C7.1 10.1544 7.1 10.1518 7.1 10.1492C7.1 10.1466 7.1 10.144 7.1 10.1414C7.1 10.1388 7.1 10.1362 7.1 10.1335C7.1 10.1309 7.1 10.1282 7.1 10.1256C7.1 10.1229 7.1 10.1203 7.1 10.1176C7.1 10.1149 7.1 10.1122 7.1 10.1096C7.1 10.1069 7.1 10.1042 7.1 10.1015C7.1 10.0987 7.1 10.096 7.1 10.0933C7.1 10.0906 7.1 10.0878 7.1 10.0851C7.1 10.0824 7.1 10.0796 7.1 10.0768C7.1 10.0741 7.1 10.0713 7.1 10.0685C7.1 10.0658 7.1 10.063 7.1 10.0602C7.1 10.0574 7.1 10.0546 7.1 10.0517C7.1 10.0489 7.1 10.0461 7.1 10.0433C7.1 10.0404 7.1 10.0376 7.1 10.0347C7.1 10.0319 7.1 10.029 7.1 10.0261C7.1 10.0233 7.1 10.0204 7.1 10.0175C7.1 10.0146 7.1 10.0117 7.1 10.0088C7.1 10.0059 7.1 10.003 7.1 10H5.9ZM5.9 13.5C5.9 14.8405 5.33781 16.1024 4.7412 17.057C4.44609 17.5292 4.15061 17.9133 3.92969 18.1784C3.81946 18.3107 3.72841 18.4126 3.66609 18.4803C3.63496 18.5141 3.61105 18.5393 3.59558 18.5554C3.58784 18.5634 3.58222 18.5692 3.57886 18.5726C3.57718 18.5743 3.57607 18.5754 3.57554 18.576C3.57528 18.5762 3.57516 18.5763 3.57519 18.5763C3.57521 18.5763 3.57526 18.5762 3.57535 18.5761C3.5754 18.5761 3.57549 18.576 3.57552 18.576C3.57562 18.5759 3.57574 18.5758 4 19C4.42426 19.4243 4.4244 19.4242 4.42454 19.424C4.4246 19.424 4.42476 19.4238 4.42488 19.4237C4.42512 19.4234 4.4254 19.4232 4.42572 19.4228C4.42636 19.4222 4.42714 19.4214 4.42808 19.4205C4.42996 19.4186 4.43243 19.4161 4.43548 19.4129C4.44158 19.4067 4.45 19.3981 4.46058 19.3871C4.48172 19.3651 4.51153 19.3336 4.54875 19.2932C4.62316 19.2124 4.72742 19.0956 4.85156 18.9466C5.09939 18.6492 5.42891 18.2209 5.7588 17.693C6.41219 16.6476 7.1 15.1596 7.1 13.5H5.9ZM4 19.6H20V18.4H4V19.6ZM20 19C20.4243 18.5758 20.4244 18.5759 20.4245 18.576C20.4245 18.576 20.4246 18.5761 20.4246 18.5761C20.4247 18.5762 20.4248 18.5763 20.4248 18.5763C20.4248 18.5763 20.4247 18.5762 20.4245 18.576C20.4239 18.5754 20.4228 18.5743 20.4211 18.5726C20.4178 18.5692 20.4122 18.5634 20.4044 18.5554C20.389 18.5393 20.365 18.5141 20.3339 18.4803C20.2716 18.4126 20.1805 18.3107 20.0703 18.1784C19.8494 17.9133 19.5539 17.5292 19.2588 17.057C18.6622 16.1024 18.1 14.8405 18.1 13.5H16.9C16.9 15.1596 17.5878 16.6476 18.2412 17.693C18.5711 18.2209 18.9006 18.6492 19.1484 18.9466C19.2726 19.0956 19.3768 19.2124 19.4513 19.2932C19.4885 19.3336 19.5183 19.3651 19.5394 19.3871C19.55 19.3981 19.5584 19.4067 19.5645 19.4129C19.5676 19.4161 19.57 19.4186 19.5719 19.4205C19.5729 19.4214 19.5736 19.4222 19.5743 19.4228C19.5746 19.4232 19.5749 19.4234 19.5751 19.4237C19.5752 19.4238 19.5754 19.424 19.5755 19.424C19.5756 19.4242 19.5757 19.4243 20 19ZM18.1 13.5C18.1 10.5 18.1 12.5 18.1 10.5H16.9C16.9 12.5 16.9 10.5 16.9 13.5H18.1ZM18.1 10.5C18.1 9.36586 17.6794 7.97241 16.7015 6.8549C15.7082 5.7196 14.1661 4.9 12 4.9V6.1C13.8339 6.1 15.0418 6.7804 15.7985 7.6451C16.5706 8.52759 16.9 9.63414 16.9 10.5H18.1Z" fill="#B2B7BF"/>
</svg>
