<svg width="24" height="24" viewBox="0 0 24 24" fill="none" xmlns="http://www.w3.org/2000/svg">
<path d="M8.57574 16.5757C8.34142 16.8101 8.34142 17.1899 8.57574 17.4243C8.81005 17.6586 9.18995 17.6586 9.42426 17.4243L8.57574 16.5757ZM14 12L14.4243 12.4243C14.6586 12.1899 14.6586 11.8101 14.4243 11.5757L14 12ZM9.42426 6.57574C9.18995 6.34142 8.81005 6.34142 8.57574 6.57574C8.34142 6.81005 8.34142 7.18995 8.57574 7.42426L9.42426 6.57574ZM9.42426 17.4243L14.4243 12.4243L13.5757 11.5757L8.57574 16.5757L9.42426 17.4243ZM14.4243 11.5757L9.42426 6.57574L8.57574 7.42426L13.5757 12.4243L14.4243 11.5757Z" fill="#B2B7BF"/>
</svg>
