<svg width="24" height="24" viewBox="0 0 24 24" fill="none" xmlns="http://www.w3.org/2000/svg">
<path d="M10.6617 8.27205C10.6617 9.74208 9.47002 10.9338 7.99999 10.9338C6.52995 10.9338 5.33825 9.74208 5.33825 8.27205C5.33825 6.80202 6.52995 5.61032 7.99999 5.61032C9.47002 5.61032 10.6617 6.80202 10.6617 8.27205Z" stroke="#B2B7BF" stroke-width="1.2"/>
<path d="M18.6451 9.34897C18.6451 10.819 17.4534 12.0107 15.9834 12.0107C14.5134 12.0107 13.3217 10.819 13.3217 9.34897C13.3217 7.87893 14.5134 6.68723 15.9834 6.68723C17.4534 6.68723 18.6451 7.87893 18.6451 9.34897Z" stroke="#B2B7BF" stroke-width="1.2"/>
<path d="M14 19.5C14 16.755 11.6242 14 8 14C4.37581 14 2 16.755 2 19.5" stroke="#B2B7BF" stroke-width="1.2" stroke-linecap="round"/>
<path d="M22.0253 19.479V20.079C22.3566 20.079 22.6253 19.8104 22.6253 19.479H22.0253ZM14.5 14V13.4C14.2484 13.4 14.0235 13.557 13.9368 13.7932C13.8501 14.0295 13.92 14.2947 14.1118 14.4575L14.5 14ZM17.1327 19.479H16.5327C16.5327 19.8104 16.8013 20.079 17.1327 20.079V19.479ZM14.5 14.6C16.172 14.6 17.9328 15.2351 19.2715 16.1973C20.6298 17.1737 21.4253 18.3862 21.4253 19.479H22.6253C22.6253 17.8268 21.4702 16.2998 19.9719 15.2229C18.454 14.1319 16.4523 13.4 14.5 13.4V14.6ZM17.1327 19.479C17.1327 20.079 17.1327 20.079 17.1327 20.079C17.1327 20.079 17.1328 20.079 17.1328 20.079C17.1329 20.079 17.1329 20.079 17.133 20.079C17.1331 20.079 17.1331 20.079 17.1332 20.079C17.1333 20.079 17.1334 20.079 17.1336 20.079C17.1337 20.079 17.1338 20.079 17.134 20.079C17.1341 20.079 17.1343 20.079 17.1344 20.079C17.1346 20.079 17.1348 20.079 17.135 20.079C17.1352 20.079 17.1354 20.079 17.1356 20.079C17.1358 20.079 17.136 20.079 17.1363 20.079C17.1365 20.079 17.1368 20.079 17.137 20.079C17.1373 20.079 17.1376 20.079 17.1379 20.079C17.1382 20.079 17.1385 20.079 17.1388 20.079C17.1391 20.079 17.1394 20.079 17.1397 20.079C17.1401 20.079 17.1404 20.079 17.1408 20.079C17.1411 20.079 17.1415 20.079 17.1419 20.079C17.1423 20.079 17.1426 20.079 17.1431 20.079C17.1435 20.079 17.1439 20.079 17.1443 20.079C17.1447 20.079 17.1452 20.079 17.1456 20.079C17.1461 20.079 17.1465 20.079 17.147 20.079C17.1475 20.079 17.148 20.079 17.1485 20.079C17.149 20.079 17.1495 20.079 17.15 20.079C17.1505 20.079 17.151 20.079 17.1516 20.079C17.1521 20.079 17.1527 20.079 17.1532 20.079C17.1538 20.079 17.1544 20.079 17.155 20.079C17.1555 20.079 17.1561 20.079 17.1568 20.079C17.1574 20.079 17.158 20.079 17.1586 20.079C17.1593 20.079 17.1599 20.079 17.1606 20.079C17.1612 20.079 17.1619 20.079 17.1626 20.079C17.1632 20.079 17.1639 20.079 17.1646 20.079C17.1653 20.079 17.166 20.079 17.1667 20.079C17.1675 20.079 17.1682 20.079 17.1689 20.079C17.1697 20.079 17.1704 20.079 17.1712 20.079C17.172 20.079 17.1728 20.079 17.1735 20.079C17.1743 20.079 17.1751 20.079 17.1759 20.079C17.1768 20.079 17.1776 20.079 17.1784 20.079C17.1792 20.079 17.1801 20.079 17.1809 20.079C17.1818 20.079 17.1827 20.079 17.1835 20.079C17.1844 20.079 17.1853 20.079 17.1862 20.079C17.1871 20.079 17.188 20.079 17.1889 20.079C17.1898 20.079 17.1908 20.079 17.1917 20.079C17.1926 20.079 17.1936 20.079 17.1946 20.079C17.1955 20.079 17.1965 20.079 17.1975 20.079C17.1985 20.079 17.1995 20.079 17.2005 20.079C17.2015 20.079 17.2025 20.079 17.2035 20.079C17.2045 20.079 17.2056 20.079 17.2066 20.079C17.2077 20.079 17.2087 20.079 17.2098 20.079C17.2109 20.079 17.2119 20.079 17.213 20.079C17.2141 20.079 17.2152 20.079 17.2163 20.079C17.2174 20.079 17.2185 20.079 17.2197 20.079C17.2208 20.079 17.222 20.079 17.2231 20.079C17.2243 20.079 17.2254 20.079 17.2266 20.079C17.2278 20.079 17.2289 20.079 17.2301 20.079C17.2313 20.079 17.2325 20.079 17.2338 20.079C17.235 20.079 17.2362 20.079 17.2374 20.079C17.2387 20.079 17.2399 20.079 17.2412 20.079C17.2424 20.079 17.2437 20.079 17.245 20.079C17.2462 20.079 17.2475 20.079 17.2488 20.079C17.2501 20.079 17.2514 20.079 17.2527 20.079C17.254 20.079 17.2554 20.079 17.2567 20.079C17.258 20.079 17.2594 20.079 17.2608 20.079C17.2621 20.079 17.2635 20.079 17.2649 20.079C17.2662 20.079 17.2676 20.079 17.269 20.079C17.2704 20.079 17.2718 20.079 17.2732 20.079C17.2746 20.079 17.2761 20.079 17.2775 20.079C17.2789 20.079 17.2804 20.079 17.2818 20.079C17.2833 20.079 17.2848 20.079 17.2862 20.079C17.2877 20.079 17.2892 20.079 17.2907 20.079C17.2922 20.079 17.2937 20.079 17.2952 20.079C17.2967 20.079 17.2983 20.079 17.2998 20.079C17.3013 20.079 17.3029 20.079 17.3044 20.079C17.306 20.079 17.3075 20.079 17.3091 20.079C17.3107 20.079 17.3123 20.079 17.3139 20.079C17.3155 20.079 17.3171 20.079 17.3187 20.079C17.3203 20.079 17.3219 20.079 17.3235 20.079C17.3252 20.079 17.3268 20.079 17.3285 20.079C17.3301 20.079 17.3318 20.079 17.3334 20.079C17.3351 20.079 17.3368 20.079 17.3385 20.079C17.3402 20.079 17.3419 20.079 17.3436 20.079C17.3453 20.079 17.347 20.079 17.3487 20.079C17.3504 20.079 17.3522 20.079 17.3539 20.079C17.3557 20.079 17.3574 20.079 17.3592 20.079C17.361 20.079 17.3627 20.079 17.3645 20.079C17.3663 20.079 17.3681 20.079 17.3699 20.079C17.3717 20.079 17.3735 20.079 17.3753 20.079C17.3771 20.079 17.379 20.079 17.3808 20.079C17.3826 20.079 17.3845 20.079 17.3863 20.079C17.3882 20.079 17.3901 20.079 17.3919 20.079C17.3938 20.079 17.3957 20.079 17.3976 20.079C17.3995 20.079 17.4014 20.079 17.4033 20.079C17.4052 20.079 17.4071 20.079 17.409 20.079C17.411 20.079 17.4129 20.079 17.4149 20.079C17.4168 20.079 17.4188 20.079 17.4207 20.079C17.4227 20.079 17.4247 20.079 17.4266 20.079C17.4286 20.079 17.4306 20.079 17.4326 20.079C17.4346 20.079 17.4366 20.079 17.4386 20.079C17.4407 20.079 17.4427 20.079 17.4447 20.079C17.4467 20.079 17.4488 20.079 17.4508 20.079C17.4529 20.079 17.455 20.079 17.457 20.079C17.4591 20.079 17.4612 20.079 17.4633 20.079C17.4654 20.079 17.4675 20.079 17.4696 20.079C17.4717 20.079 17.4738 20.079 17.4759 20.079C17.478 20.079 17.4801 20.079 17.4823 20.079C17.4844 20.079 17.4866 20.079 17.4887 20.079C17.4909 20.079 17.4931 20.079 17.4952 20.079C17.4974 20.079 17.4996 20.079 17.5018 20.079C17.504 20.079 17.5062 20.079 17.5084 20.079C17.5106 20.079 17.5128 20.079 17.515 20.079C17.5172 20.079 17.5195 20.079 17.5217 20.079C17.524 20.079 17.5262 20.079 17.5285 20.079C17.5307 20.079 17.533 20.079 17.5353 20.079C17.5375 20.079 17.5398 20.079 17.5421 20.079C17.5444 20.079 17.5467 20.079 17.549 20.079C17.5513 20.079 17.5536 20.079 17.556 20.079C17.5583 20.079 17.5606 20.079 17.563 20.079C17.5653 20.079 17.5676 20.079 17.57 20.079C17.5724 20.079 17.5747 20.079 17.5771 20.079C17.5795 20.079 17.5818 20.079 17.5842 20.079C17.5866 20.079 17.589 20.079 17.5914 20.079C17.5938 20.079 17.5962 20.079 17.5987 20.079C17.6011 20.079 17.6035 20.079 17.606 20.079C17.6084 20.079 17.6108 20.079 17.6133 20.079C17.6157 20.079 17.6182 20.079 17.6207 20.079C17.6231 20.079 17.6256 20.079 17.6281 20.079C17.6306 20.079 17.6331 20.079 17.6356 20.079C17.6381 20.079 17.6406 20.079 17.6431 20.079C17.6456 20.079 17.6481 20.079 17.6507 20.079C17.6532 20.079 17.6557 20.079 17.6583 20.079C17.6608 20.079 17.6634 20.079 17.666 20.079C17.6685 20.079 17.6711 20.079 17.6737 20.079C17.6762 20.079 17.6788 20.079 17.6814 20.079C17.684 20.079 17.6866 20.079 17.6892 20.079C17.6918 20.079 17.6944 20.079 17.6971 20.079C17.6997 20.079 17.7023 20.079 17.705 20.079C17.7076 20.079 17.7102 20.079 17.7129 20.079C17.7156 20.079 17.7182 20.079 17.7209 20.079C17.7235 20.079 17.7262 20.079 17.7289 20.079C17.7316 20.079 17.7343 20.079 17.737 20.079C17.7397 20.079 17.7424 20.079 17.7451 20.079C17.7478 20.079 17.7505 20.079 17.7533 20.079C17.756 20.079 17.7587 20.079 17.7615 20.079C17.7642 20.079 17.7669 20.079 17.7697 20.079C17.7725 20.079 17.7752 20.079 17.778 20.079C17.7808 20.079 17.7835 20.079 17.7863 20.079C17.7891 20.079 17.7919 20.079 17.7947 20.079C17.7975 20.079 17.8003 20.079 17.8031 20.079C17.8059 20.079 17.8087 20.079 17.8116 20.079C17.8144 20.079 17.8172 20.079 17.8201 20.079C17.8229 20.079 17.8258 20.079 17.8286 20.079C17.8315 20.079 17.8343 20.079 17.8372 20.079C17.8401 20.079 17.843 20.079 17.8458 20.079C17.8487 20.079 17.8516 20.079 17.8545 20.079C17.8574 20.079 17.8603 20.079 17.8632 20.079C17.8661 20.079 17.8691 20.079 17.872 20.079C17.8749 20.079 17.8778 20.079 17.8808 20.079C17.8837 20.079 17.8866 20.079 17.8896 20.079C17.8926 20.079 17.8955 20.079 17.8985 20.079C17.9014 20.079 17.9044 20.079 17.9074 20.079C17.9104 20.079 17.9134 20.079 17.9163 20.079C17.9193 20.079 17.9223 20.079 17.9253 20.079C17.9283 20.079 17.9314 20.079 17.9344 20.079C17.9374 20.079 17.9404 20.079 17.9434 20.079C17.9465 20.079 17.9495 20.079 17.9526 20.079C17.9556 20.079 17.9587 20.079 17.9617 20.079C17.9648 20.079 17.9678 20.079 17.9709 20.079C17.974 20.079 17.977 20.079 17.9801 20.079C17.9832 20.079 17.9863 20.079 17.9894 20.079C17.9925 20.079 17.9956 20.079 17.9987 20.079C18.0018 20.079 18.0049 20.079 18.008 20.079C18.0112 20.079 18.0143 20.079 18.0174 20.079C18.0206 20.079 18.0237 20.079 18.0268 20.079C18.03 20.079 18.0331 20.079 18.0363 20.079C18.0395 20.079 18.0426 20.079 18.0458 20.079C18.049 20.079 18.0521 20.079 18.0553 20.079C18.0585 20.079 18.0617 20.079 18.0649 20.079C18.0681 20.079 18.0713 20.079 18.0745 20.079C18.0777 20.079 18.0809 20.079 18.0841 20.079C18.0873 20.079 18.0906 20.079 18.0938 20.079C18.097 20.079 18.1003 20.079 18.1035 20.079C18.1067 20.079 18.11 20.079 18.1132 20.079C18.1165 20.079 18.1198 20.079 18.123 20.079C18.1263 20.079 18.1296 20.079 18.1328 20.079C18.1361 20.079 18.1394 20.079 18.1427 20.079C18.146 20.079 18.1493 20.079 18.1526 20.079C18.1559 20.079 18.1592 20.079 18.1625 20.079C18.1658 20.079 18.1691 20.079 18.1725 20.079C18.1758 20.079 18.1791 20.079 18.1824 20.079C18.1858 20.079 18.1891 20.079 18.1925 20.079C18.1958 20.079 18.1992 20.079 18.2025 20.079C18.2059 20.079 18.2092 20.079 18.2126 20.079C18.216 20.079 18.2194 20.079 18.2227 20.079C18.2261 20.079 18.2295 20.079 18.2329 20.079C18.2363 20.079 18.2397 20.079 18.2431 20.079C18.2465 20.079 18.2499 20.079 18.2533 20.079C18.2567 20.079 18.2601 20.079 18.2636 20.079C18.267 20.079 18.2704 20.079 18.2738 20.079C18.2773 20.079 18.2807 20.079 18.2842 20.079C18.2876 20.079 18.2911 20.079 18.2945 20.079C18.298 20.079 18.3014 20.079 18.3049 20.079C18.3084 20.079 18.3118 20.079 18.3153 20.079C18.3188 20.079 18.3223 20.079 18.3258 20.079C18.3292 20.079 18.3327 20.079 18.3362 20.079C18.3397 20.079 18.3432 20.079 18.3467 20.079C18.3502 20.079 18.3538 20.079 18.3573 20.079C18.3608 20.079 18.3643 20.079 18.3678 20.079C18.3714 20.079 18.3749 20.079 18.3784 20.079C18.382 20.079 18.3855 20.079 18.3891 20.079C18.3926 20.079 18.3962 20.079 18.3997 20.079C18.4033 20.079 18.4068 20.079 18.4104 20.079C18.414 20.079 18.4175 20.079 18.4211 20.079C18.4247 20.079 18.4283 20.079 18.4319 20.079C18.4355 20.079 18.439 20.079 18.4426 20.079C18.4462 20.079 18.4498 20.079 18.4534 20.079C18.457 20.079 18.4607 20.079 18.4643 20.079C18.4679 20.079 18.4715 20.079 18.4751 20.079C18.4788 20.079 18.4824 20.079 18.486 20.079C18.4896 20.079 18.4933 20.079 18.4969 20.079C18.5006 20.079 18.5042 20.079 18.5079 20.079C18.5115 20.079 18.5152 20.079 18.5188 20.079C18.5225 20.079 18.5262 20.079 18.5298 20.079C18.5335 20.079 18.5372 20.079 18.5409 20.079C18.5445 20.079 18.5482 20.079 18.5519 20.079C18.5556 20.079 18.5593 20.079 18.563 20.079C18.5667 20.079 18.5704 20.079 18.5741 20.079C18.5778 20.079 18.5815 20.079 18.5852 20.079C18.5889 20.079 18.5927 20.079 18.5964 20.079C18.6001 20.079 18.6038 20.079 18.6076 20.079C18.6113 20.079 18.615 20.079 18.6188 20.079C18.6225 20.079 18.6263 20.079 18.63 20.079C18.6337 20.079 18.6375 20.079 18.6413 20.079C18.645 20.079 18.6488 20.079 18.6525 20.079C18.6563 20.079 18.6601 20.079 18.6638 20.079C18.6676 20.079 18.6714 20.079 18.6752 20.079C18.679 20.079 18.6827 20.079 18.6865 20.079C18.6903 20.079 18.6941 20.079 18.6979 20.079C18.7017 20.079 18.7055 20.079 18.7093 20.079C18.7131 20.079 18.7169 20.079 18.7207 20.079C18.7246 20.079 18.7284 20.079 18.7322 20.079C18.736 20.079 18.7398 20.079 18.7437 20.079C18.7475 20.079 18.7513 20.079 18.7552 20.079C18.759 20.079 18.7628 20.079 18.7667 20.079C18.7705 20.079 18.7744 20.079 18.7782 20.079C18.7821 20.079 18.7859 20.079 18.7898 20.079C18.7936 20.079 18.7975 20.079 18.8014 20.079C18.8052 20.079 18.8091 20.079 18.813 20.079C18.8169 20.079 18.8207 20.079 18.8246 20.079C18.8285 20.079 18.8324 20.079 18.8363 20.079C18.8402 20.079 18.844 20.079 18.8479 20.079C18.8518 20.079 18.8557 20.079 18.8596 20.079C18.8635 20.079 18.8674 20.079 18.8713 20.079C18.8753 20.079 18.8792 20.079 18.8831 20.079C18.887 20.079 18.8909 20.079 18.8948 20.079C18.8988 20.079 18.9027 20.079 18.9066 20.079C18.9105 20.079 18.9145 20.079 18.9184 20.079C18.9224 20.079 18.9263 20.079 18.9302 20.079C18.9342 20.079 18.9381 20.079 18.9421 20.079C18.946 20.079 18.95 20.079 18.9539 20.079C18.9579 20.079 18.9618 20.079 18.9658 20.079C18.9698 20.079 18.9737 20.079 18.9777 20.079C18.9817 20.079 18.9856 20.079 18.9896 20.079C18.9936 20.079 18.9976 20.079 19.0015 20.079C19.0055 20.079 19.0095 20.079 19.0135 20.079C19.0175 20.079 19.0215 20.079 19.0255 20.079C19.0294 20.079 19.0334 20.079 19.0374 20.079C19.0414 20.079 19.0454 20.079 19.0494 20.079C19.0534 20.079 19.0575 20.079 19.0615 20.079C19.0655 20.079 19.0695 20.079 19.0735 20.079C19.0775 20.079 19.0815 20.079 19.0856 20.079C19.0896 20.079 19.0936 20.079 19.0976 20.079C19.1017 20.079 19.1057 20.079 19.1097 20.079C19.1138 20.079 19.1178 20.079 19.1218 20.079C19.1259 20.079 19.1299 20.079 19.1339 20.079C19.138 20.079 19.142 20.079 19.1461 20.079C19.1501 20.079 19.1542 20.079 19.1582 20.079C19.1623 20.079 19.1663 20.079 19.1704 20.079C19.1745 20.079 19.1785 20.079 19.1826 20.079C19.1867 20.079 19.1907 20.079 19.1948 20.079C19.1989 20.079 19.2029 20.079 19.207 20.079C19.2111 20.079 19.2152 20.079 19.2192 20.079C19.2233 20.079 19.2274 20.079 19.2315 20.079C19.2356 20.079 19.2397 20.079 19.2437 20.079C19.2478 20.079 19.2519 20.079 19.256 20.079C19.2601 20.079 19.2642 20.079 19.2683 20.079C19.2724 20.079 19.2765 20.079 19.2806 20.079C19.2847 20.079 19.2888 20.079 19.2929 20.079C19.297 20.079 19.3011 20.079 19.3052 20.079C19.3094 20.079 19.3135 20.079 19.3176 20.079C19.3217 20.079 19.3258 20.079 19.3299 20.079C19.3341 20.079 19.3382 20.079 19.3423 20.079C19.3464 20.079 19.3506 20.079 19.3547 20.079C19.3588 20.079 19.3629 20.079 19.3671 20.079C19.3712 20.079 19.3753 20.079 19.3795 20.079C19.3836 20.079 19.3878 20.079 19.3919 20.079C19.396 20.079 19.4002 20.079 19.4043 20.079C19.4085 20.079 19.4126 20.079 19.4168 20.079C19.4209 20.079 19.4251 20.079 19.4292 20.079C19.4334 20.079 19.4375 20.079 19.4417 20.079C19.4458 20.079 19.45 20.079 19.4542 20.079C19.4583 20.079 19.4625 20.079 19.4666 20.079C19.4708 20.079 19.475 20.079 19.4791 20.079C19.4833 20.079 19.4875 20.079 19.4916 20.079C19.4958 20.079 19.5 20.079 19.5041 20.079C19.5083 20.079 19.5125 20.079 19.5167 20.079C19.5208 20.079 19.525 20.079 19.5292 20.079C19.5334 20.079 19.5376 20.079 19.5417 20.079C19.5459 20.079 19.5501 20.079 19.5543 20.079C19.5585 20.079 19.5627 20.079 19.5669 20.079C19.571 20.079 19.5752 20.079 19.5794 20.079C19.5836 20.079 19.5878 20.079 19.592 20.079C19.5962 20.079 19.6004 20.079 19.6046 20.079C19.6088 20.079 19.613 20.079 19.6172 20.079C19.6214 20.079 19.6256 20.079 19.6298 20.079C19.634 20.079 19.6382 20.079 19.6424 20.079C19.6466 20.079 19.6508 20.079 19.655 20.079C19.6592 20.079 19.6634 20.079 19.6676 20.079C19.6718 20.079 19.676 20.079 19.6803 20.079C19.6845 20.079 19.6887 20.079 19.6929 20.079C19.6971 20.079 19.7013 20.079 19.7055 20.079C19.7098 20.079 19.714 20.079 19.7182 20.079C19.7224 20.079 19.7266 20.079 19.7309 20.079C19.7351 20.079 19.7393 20.079 19.7435 20.079C19.7477 20.079 19.752 20.079 19.7562 20.079C19.7604 20.079 19.7646 20.079 19.7689 20.079C19.7731 20.079 19.7773 20.079 19.7815 20.079C19.7858 20.079 19.79 20.079 19.7942 20.079C19.7985 20.079 19.8027 20.079 19.8069 20.079C19.8111 20.079 19.8154 20.079 19.8196 20.079C19.8238 20.079 19.8281 20.079 19.8323 20.079C19.8365 20.079 19.8408 20.079 19.845 20.079C19.8492 20.079 19.8535 20.079 19.8577 20.079C19.862 20.079 19.8662 20.079 19.8704 20.079C19.8747 20.079 19.8789 20.079 19.8832 20.079C19.8874 20.079 19.8916 20.079 19.8959 20.079C19.9001 20.079 19.9044 20.079 19.9086 20.079C19.9128 20.079 19.9171 20.079 19.9213 20.079C19.9256 20.079 19.9298 20.079 19.934 20.079C19.9383 20.079 19.9425 20.079 19.9468 20.079C19.951 20.079 19.9553 20.079 19.9595 20.079C19.9638 20.079 19.968 20.079 19.9722 20.079C19.9765 20.079 19.9807 20.079 19.985 20.079C19.9892 20.079 19.9935 20.079 19.9977 20.079C20.002 20.079 20.0062 20.079 20.0105 20.079C20.0147 20.079 20.019 20.079 20.0232 20.079C20.0275 20.079 20.0317 20.079 20.036 20.079C20.0402 20.079 20.0444 20.079 20.0487 20.079C20.0529 20.079 20.0572 20.079 20.0614 20.079C20.0657 20.079 20.0699 20.079 20.0742 20.079C20.0784 20.079 20.0827 20.079 20.0869 20.079C20.0912 20.079 20.0954 20.079 20.0997 20.079C20.1039 20.079 20.1082 20.079 20.1124 20.079C20.1167 20.079 20.1209 20.079 20.1252 20.079C20.1294 20.079 20.1337 20.079 20.1379 20.079C20.1422 20.079 20.1464 20.079 20.1507 20.079C20.1549 20.079 20.1592 20.079 20.1634 20.079C20.1677 20.079 20.1719 20.079 20.1762 20.079C20.1804 20.079 20.1847 20.079 20.1889 20.079C20.1931 20.079 20.1974 20.079 20.2016 20.079C20.2059 20.079 20.2101 20.079 20.2144 20.079C20.2186 20.079 20.2229 20.079 20.2271 20.079C20.2314 20.079 20.2356 20.079 20.2398 20.079C20.2441 20.079 20.2483 20.079 20.2526 20.079C20.2568 20.079 20.2611 20.079 20.2653 20.079C20.2696 20.079 20.2738 20.079 20.278 20.079C20.2823 20.079 20.2865 20.079 20.2908 20.079C20.295 20.079 20.2992 20.079 20.3035 20.079C20.3077 20.079 20.312 20.079 20.3162 20.079C20.3204 20.079 20.3247 20.079 20.3289 20.079C20.3332 20.079 20.3374 20.079 20.3416 20.079C20.3459 20.079 20.3501 20.079 20.3543 20.079C20.3586 20.079 20.3628 20.079 20.367 20.079C20.3713 20.079 20.3755 20.079 20.3797 20.079C20.384 20.079 20.3882 20.079 20.3924 20.079C20.3966 20.079 20.4009 20.079 20.4051 20.079C20.4093 20.079 20.4136 20.079 20.4178 20.079C20.422 20.079 20.4262 20.079 20.4305 20.079C20.4347 20.079 20.4389 20.079 20.4431 20.079C20.4474 20.079 20.4516 20.079 20.4558 20.079C20.46 20.079 20.4642 20.079 20.4685 20.079C20.4727 20.079 20.4769 20.079 20.4811 20.079C20.4853 20.079 20.4896 20.079 20.4938 20.079C20.498 20.079 20.5022 20.079 20.5064 20.079C20.5106 20.079 20.5148 20.079 20.519 20.079C20.5232 20.079 20.5275 20.079 20.5317 20.079C20.5359 20.079 20.5401 20.079 20.5443 20.079C20.5485 20.079 20.5527 20.079 20.5569 20.079C20.5611 20.079 20.5653 20.079 20.5695 20.079C20.5737 20.079 20.5779 20.079 20.5821 20.079C20.5863 20.079 20.5905 20.079 20.5947 20.079C20.5989 20.079 20.6031 20.079 20.6073 20.079C20.6115 20.079 20.6157 20.079 20.6198 20.079C20.624 20.079 20.6282 20.079 20.6324 20.079C20.6366 20.079 20.6408 20.079 20.645 20.079C20.6491 20.079 20.6533 20.079 20.6575 20.079C20.6617 20.079 20.6659 20.079 20.67 20.079C20.6742 20.079 20.6784 20.079 20.6826 20.079C20.6867 20.079 20.6909 20.079 20.6951 20.079C20.6993 20.079 20.7034 20.079 20.7076 20.079C20.7118 20.079 20.7159 20.079 20.7201 20.079C20.7243 20.079 20.7284 20.079 20.7326 20.079C20.7367 20.079 20.7409 20.079 20.7451 20.079C20.7492 20.079 20.7534 20.079 20.7575 20.079C20.7617 20.079 20.7658 20.079 20.77 20.079C20.7741 20.079 20.7783 20.079 20.7824 20.079C20.7866 20.079 20.7907 20.079 20.7949 20.079C20.799 20.079 20.8031 20.079 20.8073 20.079C20.8114 20.079 20.8155 20.079 20.8197 20.079C20.8238 20.079 20.8279 20.079 20.8321 20.079C20.8362 20.079 20.8403 20.079 20.8445 20.079C20.8486 20.079 20.8527 20.079 20.8568 20.079C20.861 20.079 20.8651 20.079 20.8692 20.079C20.8733 20.079 20.8774 20.079 20.8815 20.079C20.8857 20.079 20.8898 20.079 20.8939 20.079C20.898 20.079 20.9021 20.079 20.9062 20.079C20.9103 20.079 20.9144 20.079 20.9185 20.079C20.9226 20.079 20.9267 20.079 20.9308 20.079C20.9349 20.079 20.939 20.079 20.9431 20.079C20.9472 20.079 20.9513 20.079 20.9553 20.079C20.9594 20.079 20.9635 20.079 20.9676 20.079C20.9717 20.079 20.9757 20.079 20.9798 20.079C20.9839 20.079 20.988 20.079 20.992 20.079C20.9961 20.079 21.0002 20.079 21.0043 20.079C21.0083 20.079 21.0124 20.079 21.0164 20.079C21.0205 20.079 21.0246 20.079 21.0286 20.079C21.0327 20.079 21.0367 20.079 21.0408 20.079C21.0448 20.079 21.0489 20.079 21.0529 20.079C21.057 20.079 21.061 20.079 21.0651 20.079C21.0691 20.079 21.0731 20.079 21.0772 20.079C21.0812 20.079 21.0852 20.079 21.0893 20.079C21.0933 20.079 21.0973 20.079 21.1013 20.079C21.1054 20.079 21.1094 20.079 21.1134 20.079C21.1174 20.079 21.1214 20.079 21.1254 20.079C21.1295 20.079 21.1335 20.079 21.1375 20.079C21.1415 20.079 21.1455 20.079 21.1495 20.079C21.1535 20.079 21.1575 20.079 21.1615 20.079C21.1655 20.079 21.1695 20.079 21.1735 20.079C21.1774 20.079 21.1814 20.079 21.1854 20.079C21.1894 20.079 21.1934 20.079 21.1974 20.079C21.2013 20.079 21.2053 20.079 21.2093 20.079C21.2132 20.079 21.2172 20.079 21.2212 20.079C21.2251 20.079 21.2291 20.079 21.2331 20.079C21.237 20.079 21.241 20.079 21.2449 20.079C21.2489 20.079 21.2528 20.079 21.2568 20.079C21.2607 20.079 21.2646 20.079 21.2686 20.079C21.2725 20.079 21.2765 20.079 21.2804 20.079C21.2843 20.079 21.2883 20.079 21.2922 20.079C21.2961 20.079 21.3 20.079 21.3039 20.079C21.3079 20.079 21.3118 20.079 21.3157 20.079C21.3196 20.079 21.3235 20.079 21.3274 20.079C21.3313 20.079 21.3352 20.079 21.3391 20.079C21.343 20.079 21.3469 20.079 21.3508 20.079C21.3547 20.079 21.3586 20.079 21.3625 20.079C21.3663 20.079 21.3702 20.079 21.3741 20.079C21.378 20.079 21.3818 20.079 21.3857 20.079C21.3896 20.079 21.3934 20.079 21.3973 20.079C21.4012 20.079 21.405 20.079 21.4089 20.079C21.4127 20.079 21.4166 20.079 21.4204 20.079C21.4243 20.079 21.4281 20.079 21.432 20.079C21.4358 20.079 21.4396 20.079 21.4435 20.079C21.4473 20.079 21.4511 20.079 21.4549 20.079C21.4588 20.079 21.4626 20.079 21.4664 20.079C21.4702 20.079 21.474 20.079 21.4778 20.079C21.4817 20.079 21.4855 20.079 21.4893 20.079C21.4931 20.079 21.4969 20.079 21.5006 20.079C21.5044 20.079 21.5082 20.079 21.512 20.079C21.5158 20.079 21.5196 20.079 21.5234 20.079C21.5271 20.079 21.5309 20.079 21.5347 20.079C21.5384 20.079 21.5422 20.079 21.546 20.079C21.5497 20.079 21.5535 20.079 21.5572 20.079C21.561 20.079 21.5647 20.079 21.5685 20.079C21.5722 20.079 21.576 20.079 21.5797 20.079C21.5834 20.079 21.5872 20.079 21.5909 20.079C21.5946 20.079 21.5983 20.079 21.602 20.079C21.6058 20.079 21.6095 20.079 21.6132 20.079C21.6169 20.079 21.6206 20.079 21.6243 20.079C21.628 20.079 21.6317 20.079 21.6354 20.079C21.6391 20.079 21.6428 20.079 21.6465 20.079C21.6501 20.079 21.6538 20.079 21.6575 20.079C21.6612 20.079 21.6648 20.079 21.6685 20.079C21.6722 20.079 21.6758 20.079 21.6795 20.079C21.6831 20.079 21.6868 20.079 21.6904 20.079C21.6941 20.079 21.6977 20.079 21.7014 20.079C21.705 20.079 21.7086 20.079 21.7123 20.079C21.7159 20.079 21.7195 20.079 21.7231 20.079C21.7267 20.079 21.7304 20.079 21.734 20.079C21.7376 20.079 21.7412 20.079 21.7448 20.079C21.7484 20.079 21.752 20.079 21.7556 20.079C21.7592 20.079 21.7627 20.079 21.7663 20.079C21.7699 20.079 21.7735 20.079 21.777 20.079C21.7806 20.079 21.7842 20.079 21.7877 20.079C21.7913 20.079 21.7949 20.079 21.7984 20.079C21.802 20.079 21.8055 20.079 21.8091 20.079C21.8126 20.079 21.8161 20.079 21.8197 20.079C21.8232 20.079 21.8267 20.079 21.8302 20.079C21.8338 20.079 21.8373 20.079 21.8408 20.079C21.8443 20.079 21.8478 20.079 21.8513 20.079C21.8548 20.079 21.8583 20.079 21.8618 20.079C21.8653 20.079 21.8688 20.079 21.8723 20.079C21.8757 20.079 21.8792 20.079 21.8827 20.079C21.8861 20.079 21.8896 20.079 21.8931 20.079C21.8965 20.079 21.9 20.079 21.9034 20.079C21.9069 20.079 21.9103 20.079 21.9138 20.079C21.9172 20.079 21.9206 20.079 21.9241 20.079C21.9275 20.079 21.9309 20.079 21.9343 20.079C21.9378 20.079 21.9412 20.079 21.9446 20.079C21.948 20.079 21.9514 20.079 21.9548 20.079C21.9582 20.079 21.9616 20.079 21.9649 20.079C21.9683 20.079 21.9717 20.079 21.9751 20.079C21.9785 20.079 21.9818 20.079 21.9852 20.079C21.9885 20.079 21.9919 20.079 21.9953 20.079C21.9986 20.079 22.0019 20.079 22.0053 20.079C22.0086 20.079 22.012 20.079 22.0153 20.079C22.0186 20.079 22.0219 20.079 22.0253 20.079V18.879C22.0219 18.879 22.0186 18.879 22.0153 18.879C22.012 18.879 22.0086 18.879 22.0053 18.879C22.0019 18.879 21.9986 18.879 21.9953 18.879C21.9919 18.879 21.9885 18.879 21.9852 18.879C21.9818 18.879 21.9785 18.879 21.9751 18.879C21.9717 18.879 21.9683 18.879 21.9649 18.879C21.9616 18.879 21.9582 18.879 21.9548 18.879C21.9514 18.879 21.948 18.879 21.9446 18.879C21.9412 18.879 21.9378 18.879 21.9343 18.879C21.9309 18.879 21.9275 18.879 21.9241 18.879C21.9206 18.879 21.9172 18.879 21.9138 18.879C21.9103 18.879 21.9069 18.879 21.9034 18.879C21.9 18.879 21.8965 18.879 21.8931 18.879C21.8896 18.879 21.8861 18.879 21.8827 18.879C21.8792 18.879 21.8757 18.879 21.8723 18.879C21.8688 18.879 21.8653 18.879 21.8618 18.879C21.8583 18.879 21.8548 18.879 21.8513 18.879C21.8478 18.879 21.8443 18.879 21.8408 18.879C21.8373 18.879 21.8338 18.879 21.8302 18.879C21.8267 18.879 21.8232 18.879 21.8197 18.879C21.8161 18.879 21.8126 18.879 21.8091 18.879C21.8055 18.879 21.802 18.879 21.7984 18.879C21.7949 18.879 21.7913 18.879 21.7877 18.879C21.7842 18.879 21.7806 18.879 21.777 18.879C21.7735 18.879 21.7699 18.879 21.7663 18.879C21.7627 18.879 21.7592 18.879 21.7556 18.879C21.752 18.879 21.7484 18.879 21.7448 18.879C21.7412 18.879 21.7376 18.879 21.734 18.879C21.7304 18.879 21.7267 18.879 21.7231 18.879C21.7195 18.879 21.7159 18.879 21.7123 18.879C21.7086 18.879 21.705 18.879 21.7014 18.879C21.6977 18.879 21.6941 18.879 21.6904 18.879C21.6868 18.879 21.6831 18.879 21.6795 18.879C21.6758 18.879 21.6722 18.879 21.6685 18.879C21.6648 18.879 21.6612 18.879 21.6575 18.879C21.6538 18.879 21.6501 18.879 21.6465 18.879C21.6428 18.879 21.6391 18.879 21.6354 18.879C21.6317 18.879 21.628 18.879 21.6243 18.879C21.6206 18.879 21.6169 18.879 21.6132 18.879C21.6095 18.879 21.6058 18.879 21.602 18.879C21.5983 18.879 21.5946 18.879 21.5909 18.879C21.5872 18.879 21.5834 18.879 21.5797 18.879C21.576 18.879 21.5722 18.879 21.5685 18.879C21.5647 18.879 21.561 18.879 21.5572 18.879C21.5535 18.879 21.5497 18.879 21.546 18.879C21.5422 18.879 21.5384 18.879 21.5347 18.879C21.5309 18.879 21.5271 18.879 21.5234 18.879C21.5196 18.879 21.5158 18.879 21.512 18.879C21.5082 18.879 21.5044 18.879 21.5006 18.879C21.4969 18.879 21.4931 18.879 21.4893 18.879C21.4855 18.879 21.4817 18.879 21.4778 18.879C21.474 18.879 21.4702 18.879 21.4664 18.879C21.4626 18.879 21.4588 18.879 21.4549 18.879C21.4511 18.879 21.4473 18.879 21.4435 18.879C21.4396 18.879 21.4358 18.879 21.432 18.879C21.4281 18.879 21.4243 18.879 21.4204 18.879C21.4166 18.879 21.4127 18.879 21.4089 18.879C21.405 18.879 21.4012 18.879 21.3973 18.879C21.3934 18.879 21.3896 18.879 21.3857 18.879C21.3818 18.879 21.378 18.879 21.3741 18.879C21.3702 18.879 21.3663 18.879 21.3625 18.879C21.3586 18.879 21.3547 18.879 21.3508 18.879C21.3469 18.879 21.343 18.879 21.3391 18.879C21.3352 18.879 21.3313 18.879 21.3274 18.879C21.3235 18.879 21.3196 18.879 21.3157 18.879C21.3118 18.879 21.3079 18.879 21.3039 18.879C21.3 18.879 21.2961 18.879 21.2922 18.879C21.2883 18.879 21.2843 18.879 21.2804 18.879C21.2765 18.879 21.2725 18.879 21.2686 18.879C21.2646 18.879 21.2607 18.879 21.2568 18.879C21.2528 18.879 21.2489 18.879 21.2449 18.879C21.241 18.879 21.237 18.879 21.2331 18.879C21.2291 18.879 21.2251 18.879 21.2212 18.879C21.2172 18.879 21.2132 18.879 21.2093 18.879C21.2053 18.879 21.2013 18.879 21.1974 18.879C21.1934 18.879 21.1894 18.879 21.1854 18.879C21.1814 18.879 21.1774 18.879 21.1735 18.879C21.1695 18.879 21.1655 18.879 21.1615 18.879C21.1575 18.879 21.1535 18.879 21.1495 18.879C21.1455 18.879 21.1415 18.879 21.1375 18.879C21.1335 18.879 21.1295 18.879 21.1254 18.879C21.1214 18.879 21.1174 18.879 21.1134 18.879C21.1094 18.879 21.1054 18.879 21.1013 18.879C21.0973 18.879 21.0933 18.879 21.0893 18.879C21.0852 18.879 21.0812 18.879 21.0772 18.879C21.0731 18.879 21.0691 18.879 21.0651 18.879C21.061 18.879 21.057 18.879 21.0529 18.879C21.0489 18.879 21.0448 18.879 21.0408 18.879C21.0367 18.879 21.0327 18.879 21.0286 18.879C21.0246 18.879 21.0205 18.879 21.0164 18.879C21.0124 18.879 21.0083 18.879 21.0043 18.879C21.0002 18.879 20.9961 18.879 20.992 18.879C20.988 18.879 20.9839 18.879 20.9798 18.879C20.9757 18.879 20.9717 18.879 20.9676 18.879C20.9635 18.879 20.9594 18.879 20.9553 18.879C20.9513 18.879 20.9472 18.879 20.9431 18.879C20.939 18.879 20.9349 18.879 20.9308 18.879C20.9267 18.879 20.9226 18.879 20.9185 18.879C20.9144 18.879 20.9103 18.879 20.9062 18.879C20.9021 18.879 20.898 18.879 20.8939 18.879C20.8898 18.879 20.8857 18.879 20.8815 18.879C20.8774 18.879 20.8733 18.879 20.8692 18.879C20.8651 18.879 20.861 18.879 20.8568 18.879C20.8527 18.879 20.8486 18.879 20.8445 18.879C20.8403 18.879 20.8362 18.879 20.8321 18.879C20.8279 18.879 20.8238 18.879 20.8197 18.879C20.8155 18.879 20.8114 18.879 20.8073 18.879C20.8031 18.879 20.799 18.879 20.7949 18.879C20.7907 18.879 20.7866 18.879 20.7824 18.879C20.7783 18.879 20.7741 18.879 20.77 18.879C20.7658 18.879 20.7617 18.879 20.7575 18.879C20.7534 18.879 20.7492 18.879 20.7451 18.879C20.7409 18.879 20.7367 18.879 20.7326 18.879C20.7284 18.879 20.7243 18.879 20.7201 18.879C20.7159 18.879 20.7118 18.879 20.7076 18.879C20.7034 18.879 20.6993 18.879 20.6951 18.879C20.6909 18.879 20.6867 18.879 20.6826 18.879C20.6784 18.879 20.6742 18.879 20.67 18.879C20.6659 18.879 20.6617 18.879 20.6575 18.879C20.6533 18.879 20.6491 18.879 20.645 18.879C20.6408 18.879 20.6366 18.879 20.6324 18.879C20.6282 18.879 20.624 18.879 20.6198 18.879C20.6157 18.879 20.6115 18.879 20.6073 18.879C20.6031 18.879 20.5989 18.879 20.5947 18.879C20.5905 18.879 20.5863 18.879 20.5821 18.879C20.5779 18.879 20.5737 18.879 20.5695 18.879C20.5653 18.879 20.5611 18.879 20.5569 18.879C20.5527 18.879 20.5485 18.879 20.5443 18.879C20.5401 18.879 20.5359 18.879 20.5317 18.879C20.5275 18.879 20.5232 18.879 20.519 18.879C20.5148 18.879 20.5106 18.879 20.5064 18.879C20.5022 18.879 20.498 18.879 20.4938 18.879C20.4896 18.879 20.4853 18.879 20.4811 18.879C20.4769 18.879 20.4727 18.879 20.4685 18.879C20.4642 18.879 20.46 18.879 20.4558 18.879C20.4516 18.879 20.4474 18.879 20.4431 18.879C20.4389 18.879 20.4347 18.879 20.4305 18.879C20.4262 18.879 20.422 18.879 20.4178 18.879C20.4136 18.879 20.4093 18.879 20.4051 18.879C20.4009 18.879 20.3966 18.879 20.3924 18.879C20.3882 18.879 20.384 18.879 20.3797 18.879C20.3755 18.879 20.3713 18.879 20.367 18.879C20.3628 18.879 20.3586 18.879 20.3543 18.879C20.3501 18.879 20.3459 18.879 20.3416 18.879C20.3374 18.879 20.3332 18.879 20.3289 18.879C20.3247 18.879 20.3204 18.879 20.3162 18.879C20.312 18.879 20.3077 18.879 20.3035 18.879C20.2992 18.879 20.295 18.879 20.2908 18.879C20.2865 18.879 20.2823 18.879 20.278 18.879C20.2738 18.879 20.2696 18.879 20.2653 18.879C20.2611 18.879 20.2568 18.879 20.2526 18.879C20.2483 18.879 20.2441 18.879 20.2398 18.879C20.2356 18.879 20.2314 18.879 20.2271 18.879C20.2229 18.879 20.2186 18.879 20.2144 18.879C20.2101 18.879 20.2059 18.879 20.2016 18.879C20.1974 18.879 20.1931 18.879 20.1889 18.879C20.1847 18.879 20.1804 18.879 20.1762 18.879C20.1719 18.879 20.1677 18.879 20.1634 18.879C20.1592 18.879 20.1549 18.879 20.1507 18.879C20.1464 18.879 20.1422 18.879 20.1379 18.879C20.1337 18.879 20.1294 18.879 20.1252 18.879C20.1209 18.879 20.1167 18.879 20.1124 18.879C20.1082 18.879 20.1039 18.879 20.0997 18.879C20.0954 18.879 20.0912 18.879 20.0869 18.879C20.0827 18.879 20.0784 18.879 20.0742 18.879C20.0699 18.879 20.0657 18.879 20.0614 18.879C20.0572 18.879 20.0529 18.879 20.0487 18.879C20.0444 18.879 20.0402 18.879 20.036 18.879C20.0317 18.879 20.0275 18.879 20.0232 18.879C20.019 18.879 20.0147 18.879 20.0105 18.879C20.0062 18.879 20.002 18.879 19.9977 18.879C19.9935 18.879 19.9892 18.879 19.985 18.879C19.9807 18.879 19.9765 18.879 19.9722 18.879C19.968 18.879 19.9638 18.879 19.9595 18.879C19.9553 18.879 19.951 18.879 19.9468 18.879C19.9425 18.879 19.9383 18.879 19.934 18.879C19.9298 18.879 19.9256 18.879 19.9213 18.879C19.9171 18.879 19.9128 18.879 19.9086 18.879C19.9044 18.879 19.9001 18.879 19.8959 18.879C19.8916 18.879 19.8874 18.879 19.8832 18.879C19.8789 18.879 19.8747 18.879 19.8704 18.879C19.8662 18.879 19.862 18.879 19.8577 18.879C19.8535 18.879 19.8492 18.879 19.845 18.879C19.8408 18.879 19.8365 18.879 19.8323 18.879C19.8281 18.879 19.8238 18.879 19.8196 18.879C19.8154 18.879 19.8111 18.879 19.8069 18.879C19.8027 18.879 19.7985 18.879 19.7942 18.879C19.79 18.879 19.7858 18.879 19.7815 18.879C19.7773 18.879 19.7731 18.879 19.7689 18.879C19.7646 18.879 19.7604 18.879 19.7562 18.879C19.752 18.879 19.7477 18.879 19.7435 18.879C19.7393 18.879 19.7351 18.879 19.7309 18.879C19.7266 18.879 19.7224 18.879 19.7182 18.879C19.714 18.879 19.7098 18.879 19.7055 18.879C19.7013 18.879 19.6971 18.879 19.6929 18.879C19.6887 18.879 19.6845 18.879 19.6803 18.879C19.676 18.879 19.6718 18.879 19.6676 18.879C19.6634 18.879 19.6592 18.879 19.655 18.879C19.6508 18.879 19.6466 18.879 19.6424 18.879C19.6382 18.879 19.634 18.879 19.6298 18.879C19.6256 18.879 19.6214 18.879 19.6172 18.879C19.613 18.879 19.6088 18.879 19.6046 18.879C19.6004 18.879 19.5962 18.879 19.592 18.879C19.5878 18.879 19.5836 18.879 19.5794 18.879C19.5752 18.879 19.571 18.879 19.5669 18.879C19.5627 18.879 19.5585 18.879 19.5543 18.879C19.5501 18.879 19.5459 18.879 19.5417 18.879C19.5376 18.879 19.5334 18.879 19.5292 18.879C19.525 18.879 19.5208 18.879 19.5167 18.879C19.5125 18.879 19.5083 18.879 19.5041 18.879C19.5 18.879 19.4958 18.879 19.4916 18.879C19.4875 18.879 19.4833 18.879 19.4791 18.879C19.475 18.879 19.4708 18.879 19.4666 18.879C19.4625 18.879 19.4583 18.879 19.4542 18.879C19.45 18.879 19.4458 18.879 19.4417 18.879C19.4375 18.879 19.4334 18.879 19.4292 18.879C19.4251 18.879 19.4209 18.879 19.4168 18.879C19.4126 18.879 19.4085 18.879 19.4043 18.879C19.4002 18.879 19.396 18.879 19.3919 18.879C19.3878 18.879 19.3836 18.879 19.3795 18.879C19.3753 18.879 19.3712 18.879 19.3671 18.879C19.3629 18.879 19.3588 18.879 19.3547 18.879C19.3506 18.879 19.3464 18.879 19.3423 18.879C19.3382 18.879 19.3341 18.879 19.3299 18.879C19.3258 18.879 19.3217 18.879 19.3176 18.879C19.3135 18.879 19.3094 18.879 19.3052 18.879C19.3011 18.879 19.297 18.879 19.2929 18.879C19.2888 18.879 19.2847 18.879 19.2806 18.879C19.2765 18.879 19.2724 18.879 19.2683 18.879C19.2642 18.879 19.2601 18.879 19.256 18.879C19.2519 18.879 19.2478 18.879 19.2437 18.879C19.2397 18.879 19.2356 18.879 19.2315 18.879C19.2274 18.879 19.2233 18.879 19.2192 18.879C19.2152 18.879 19.2111 18.879 19.207 18.879C19.2029 18.879 19.1989 18.879 19.1948 18.879C19.1907 18.879 19.1867 18.879 19.1826 18.879C19.1785 18.879 19.1745 18.879 19.1704 18.879C19.1663 18.879 19.1623 18.879 19.1582 18.879C19.1542 18.879 19.1501 18.879 19.1461 18.879C19.142 18.879 19.138 18.879 19.1339 18.879C19.1299 18.879 19.1259 18.879 19.1218 18.879C19.1178 18.879 19.1138 18.879 19.1097 18.879C19.1057 18.879 19.1017 18.879 19.0976 18.879C19.0936 18.879 19.0896 18.879 19.0856 18.879C19.0815 18.879 19.0775 18.879 19.0735 18.879C19.0695 18.879 19.0655 18.879 19.0615 18.879C19.0575 18.879 19.0534 18.879 19.0494 18.879C19.0454 18.879 19.0414 18.879 19.0374 18.879C19.0334 18.879 19.0294 18.879 19.0255 18.879C19.0215 18.879 19.0175 18.879 19.0135 18.879C19.0095 18.879 19.0055 18.879 19.0015 18.879C18.9976 18.879 18.9936 18.879 18.9896 18.879C18.9856 18.879 18.9817 18.879 18.9777 18.879C18.9737 18.879 18.9698 18.879 18.9658 18.879C18.9618 18.879 18.9579 18.879 18.9539 18.879C18.95 18.879 18.946 18.879 18.9421 18.879C18.9381 18.879 18.9342 18.879 18.9302 18.879C18.9263 18.879 18.9224 18.879 18.9184 18.879C18.9145 18.879 18.9105 18.879 18.9066 18.879C18.9027 18.879 18.8988 18.879 18.8948 18.879C18.8909 18.879 18.887 18.879 18.8831 18.879C18.8792 18.879 18.8753 18.879 18.8713 18.879C18.8674 18.879 18.8635 18.879 18.8596 18.879C18.8557 18.879 18.8518 18.879 18.8479 18.879C18.844 18.879 18.8402 18.879 18.8363 18.879C18.8324 18.879 18.8285 18.879 18.8246 18.879C18.8207 18.879 18.8169 18.879 18.813 18.879C18.8091 18.879 18.8052 18.879 18.8014 18.879C18.7975 18.879 18.7936 18.879 18.7898 18.879C18.7859 18.879 18.7821 18.879 18.7782 18.879C18.7744 18.879 18.7705 18.879 18.7667 18.879C18.7628 18.879 18.759 18.879 18.7552 18.879C18.7513 18.879 18.7475 18.879 18.7437 18.879C18.7398 18.879 18.736 18.879 18.7322 18.879C18.7284 18.879 18.7246 18.879 18.7207 18.879C18.7169 18.879 18.7131 18.879 18.7093 18.879C18.7055 18.879 18.7017 18.879 18.6979 18.879C18.6941 18.879 18.6903 18.879 18.6865 18.879C18.6827 18.879 18.679 18.879 18.6752 18.879C18.6714 18.879 18.6676 18.879 18.6638 18.879C18.6601 18.879 18.6563 18.879 18.6525 18.879C18.6488 18.879 18.645 18.879 18.6413 18.879C18.6375 18.879 18.6337 18.879 18.63 18.879C18.6263 18.879 18.6225 18.879 18.6188 18.879C18.615 18.879 18.6113 18.879 18.6076 18.879C18.6038 18.879 18.6001 18.879 18.5964 18.879C18.5927 18.879 18.5889 18.879 18.5852 18.879C18.5815 18.879 18.5778 18.879 18.5741 18.879C18.5704 18.879 18.5667 18.879 18.563 18.879C18.5593 18.879 18.5556 18.879 18.5519 18.879C18.5482 18.879 18.5445 18.879 18.5409 18.879C18.5372 18.879 18.5335 18.879 18.5298 18.879C18.5262 18.879 18.5225 18.879 18.5188 18.879C18.5152 18.879 18.5115 18.879 18.5079 18.879C18.5042 18.879 18.5006 18.879 18.4969 18.879C18.4933 18.879 18.4896 18.879 18.486 18.879C18.4824 18.879 18.4788 18.879 18.4751 18.879C18.4715 18.879 18.4679 18.879 18.4643 18.879C18.4607 18.879 18.457 18.879 18.4534 18.879C18.4498 18.879 18.4462 18.879 18.4426 18.879C18.439 18.879 18.4355 18.879 18.4319 18.879C18.4283 18.879 18.4247 18.879 18.4211 18.879C18.4175 18.879 18.414 18.879 18.4104 18.879C18.4068 18.879 18.4033 18.879 18.3997 18.879C18.3962 18.879 18.3926 18.879 18.3891 18.879C18.3855 18.879 18.382 18.879 18.3784 18.879C18.3749 18.879 18.3714 18.879 18.3678 18.879C18.3643 18.879 18.3608 18.879 18.3573 18.879C18.3538 18.879 18.3502 18.879 18.3467 18.879C18.3432 18.879 18.3397 18.879 18.3362 18.879C18.3327 18.879 18.3292 18.879 18.3258 18.879C18.3223 18.879 18.3188 18.879 18.3153 18.879C18.3118 18.879 18.3084 18.879 18.3049 18.879C18.3014 18.879 18.298 18.879 18.2945 18.879C18.2911 18.879 18.2876 18.879 18.2842 18.879C18.2807 18.879 18.2773 18.879 18.2738 18.879C18.2704 18.879 18.267 18.879 18.2636 18.879C18.2601 18.879 18.2567 18.879 18.2533 18.879C18.2499 18.879 18.2465 18.879 18.2431 18.879C18.2397 18.879 18.2363 18.879 18.2329 18.879C18.2295 18.879 18.2261 18.879 18.2227 18.879C18.2194 18.879 18.216 18.879 18.2126 18.879C18.2092 18.879 18.2059 18.879 18.2025 18.879C18.1992 18.879 18.1958 18.879 18.1925 18.879C18.1891 18.879 18.1858 18.879 18.1824 18.879C18.1791 18.879 18.1758 18.879 18.1725 18.879C18.1691 18.879 18.1658 18.879 18.1625 18.879C18.1592 18.879 18.1559 18.879 18.1526 18.879C18.1493 18.879 18.146 18.879 18.1427 18.879C18.1394 18.879 18.1361 18.879 18.1328 18.879C18.1296 18.879 18.1263 18.879 18.123 18.879C18.1198 18.879 18.1165 18.879 18.1132 18.879C18.11 18.879 18.1067 18.879 18.1035 18.879C18.1003 18.879 18.097 18.879 18.0938 18.879C18.0906 18.879 18.0873 18.879 18.0841 18.879C18.0809 18.879 18.0777 18.879 18.0745 18.879C18.0713 18.879 18.0681 18.879 18.0649 18.879C18.0617 18.879 18.0585 18.879 18.0553 18.879C18.0521 18.879 18.049 18.879 18.0458 18.879C18.0426 18.879 18.0395 18.879 18.0363 18.879C18.0331 18.879 18.03 18.879 18.0268 18.879C18.0237 18.879 18.0206 18.879 18.0174 18.879C18.0143 18.879 18.0112 18.879 18.008 18.879C18.0049 18.879 18.0018 18.879 17.9987 18.879C17.9956 18.879 17.9925 18.879 17.9894 18.879C17.9863 18.879 17.9832 18.879 17.9801 18.879C17.977 18.879 17.974 18.879 17.9709 18.879C17.9678 18.879 17.9648 18.879 17.9617 18.879C17.9587 18.879 17.9556 18.879 17.9526 18.879C17.9495 18.879 17.9465 18.879 17.9434 18.879C17.9404 18.879 17.9374 18.879 17.9344 18.879C17.9314 18.879 17.9283 18.879 17.9253 18.879C17.9223 18.879 17.9193 18.879 17.9163 18.879C17.9134 18.879 17.9104 18.879 17.9074 18.879C17.9044 18.879 17.9014 18.879 17.8985 18.879C17.8955 18.879 17.8926 18.879 17.8896 18.879C17.8866 18.879 17.8837 18.879 17.8808 18.879C17.8778 18.879 17.8749 18.879 17.872 18.879C17.8691 18.879 17.8661 18.879 17.8632 18.879C17.8603 18.879 17.8574 18.879 17.8545 18.879C17.8516 18.879 17.8487 18.879 17.8458 18.879C17.843 18.879 17.8401 18.879 17.8372 18.879C17.8343 18.879 17.8315 18.879 17.8286 18.879C17.8258 18.879 17.8229 18.879 17.8201 18.879C17.8172 18.879 17.8144 18.879 17.8116 18.879C17.8087 18.879 17.8059 18.879 17.8031 18.879C17.8003 18.879 17.7975 18.879 17.7947 18.879C17.7919 18.879 17.7891 18.879 17.7863 18.879C17.7835 18.879 17.7808 18.879 17.778 18.879C17.7752 18.879 17.7725 18.879 17.7697 18.879C17.7669 18.879 17.7642 18.879 17.7615 18.879C17.7587 18.879 17.756 18.879 17.7533 18.879C17.7505 18.879 17.7478 18.879 17.7451 18.879C17.7424 18.879 17.7397 18.879 17.737 18.879C17.7343 18.879 17.7316 18.879 17.7289 18.879C17.7262 18.879 17.7235 18.879 17.7209 18.879C17.7182 18.879 17.7156 18.879 17.7129 18.879C17.7102 18.879 17.7076 18.879 17.705 18.879C17.7023 18.879 17.6997 18.879 17.6971 18.879C17.6944 18.879 17.6918 18.879 17.6892 18.879C17.6866 18.879 17.684 18.879 17.6814 18.879C17.6788 18.879 17.6762 18.879 17.6737 18.879C17.6711 18.879 17.6685 18.879 17.666 18.879C17.6634 18.879 17.6608 18.879 17.6583 18.879C17.6557 18.879 17.6532 18.879 17.6507 18.879C17.6481 18.879 17.6456 18.879 17.6431 18.879C17.6406 18.879 17.6381 18.879 17.6356 18.879C17.6331 18.879 17.6306 18.879 17.6281 18.879C17.6256 18.879 17.6231 18.879 17.6207 18.879C17.6182 18.879 17.6157 18.879 17.6133 18.879C17.6108 18.879 17.6084 18.879 17.606 18.879C17.6035 18.879 17.6011 18.879 17.5987 18.879C17.5962 18.879 17.5938 18.879 17.5914 18.879C17.589 18.879 17.5866 18.879 17.5842 18.879C17.5818 18.879 17.5795 18.879 17.5771 18.879C17.5747 18.879 17.5724 18.879 17.57 18.879C17.5676 18.879 17.5653 18.879 17.563 18.879C17.5606 18.879 17.5583 18.879 17.556 18.879C17.5536 18.879 17.5513 18.879 17.549 18.879C17.5467 18.879 17.5444 18.879 17.5421 18.879C17.5398 18.879 17.5375 18.879 17.5353 18.879C17.533 18.879 17.5307 18.879 17.5285 18.879C17.5262 18.879 17.524 18.879 17.5217 18.879C17.5195 18.879 17.5172 18.879 17.515 18.879C17.5128 18.879 17.5106 18.879 17.5084 18.879C17.5062 18.879 17.504 18.879 17.5018 18.879C17.4996 18.879 17.4974 18.879 17.4952 18.879C17.4931 18.879 17.4909 18.879 17.4887 18.879C17.4866 18.879 17.4844 18.879 17.4823 18.879C17.4801 18.879 17.478 18.879 17.4759 18.879C17.4738 18.879 17.4717 18.879 17.4696 18.879C17.4675 18.879 17.4654 18.879 17.4633 18.879C17.4612 18.879 17.4591 18.879 17.457 18.879C17.455 18.879 17.4529 18.879 17.4508 18.879C17.4488 18.879 17.4467 18.879 17.4447 18.879C17.4427 18.879 17.4407 18.879 17.4386 18.879C17.4366 18.879 17.4346 18.879 17.4326 18.879C17.4306 18.879 17.4286 18.879 17.4266 18.879C17.4247 18.879 17.4227 18.879 17.4207 18.879C17.4188 18.879 17.4168 18.879 17.4149 18.879C17.4129 18.879 17.411 18.879 17.409 18.879C17.4071 18.879 17.4052 18.879 17.4033 18.879C17.4014 18.879 17.3995 18.879 17.3976 18.879C17.3957 18.879 17.3938 18.879 17.3919 18.879C17.3901 18.879 17.3882 18.879 17.3863 18.879C17.3845 18.879 17.3826 18.879 17.3808 18.879C17.379 18.879 17.3771 18.879 17.3753 18.879C17.3735 18.879 17.3717 18.879 17.3699 18.879C17.3681 18.879 17.3663 18.879 17.3645 18.879C17.3627 18.879 17.361 18.879 17.3592 18.879C17.3574 18.879 17.3557 18.879 17.3539 18.879C17.3522 18.879 17.3504 18.879 17.3487 18.879C17.347 18.879 17.3453 18.879 17.3436 18.879C17.3419 18.879 17.3402 18.879 17.3385 18.879C17.3368 18.879 17.3351 18.879 17.3334 18.879C17.3318 18.879 17.3301 18.879 17.3285 18.879C17.3268 18.879 17.3252 18.879 17.3235 18.879C17.3219 18.879 17.3203 18.879 17.3187 18.879C17.3171 18.879 17.3155 18.879 17.3139 18.879C17.3123 18.879 17.3107 18.879 17.3091 18.879C17.3075 18.879 17.306 18.879 17.3044 18.879C17.3029 18.879 17.3013 18.879 17.2998 18.879C17.2983 18.879 17.2967 18.879 17.2952 18.879C17.2937 18.879 17.2922 18.879 17.2907 18.879C17.2892 18.879 17.2877 18.879 17.2862 18.879C17.2848 18.879 17.2833 18.879 17.2818 18.879C17.2804 18.879 17.2789 18.879 17.2775 18.879C17.2761 18.879 17.2746 18.879 17.2732 18.879C17.2718 18.879 17.2704 18.879 17.269 18.879C17.2676 18.879 17.2662 18.879 17.2649 18.879C17.2635 18.879 17.2621 18.879 17.2608 18.879C17.2594 18.879 17.258 18.879 17.2567 18.879C17.2554 18.879 17.254 18.879 17.2527 18.879C17.2514 18.879 17.2501 18.879 17.2488 18.879C17.2475 18.879 17.2462 18.879 17.245 18.879C17.2437 18.879 17.2424 18.879 17.2412 18.879C17.2399 18.879 17.2387 18.879 17.2374 18.879C17.2362 18.879 17.235 18.879 17.2338 18.879C17.2325 18.879 17.2313 18.879 17.2301 18.879C17.2289 18.879 17.2278 18.879 17.2266 18.879C17.2254 18.879 17.2243 18.879 17.2231 18.879C17.222 18.879 17.2208 18.879 17.2197 18.879C17.2185 18.879 17.2174 18.879 17.2163 18.879C17.2152 18.879 17.2141 18.879 17.213 18.879C17.2119 18.879 17.2109 18.879 17.2098 18.879C17.2087 18.879 17.2077 18.879 17.2066 18.879C17.2056 18.879 17.2045 18.879 17.2035 18.879C17.2025 18.879 17.2015 18.879 17.2005 18.879C17.1995 18.879 17.1985 18.879 17.1975 18.879C17.1965 18.879 17.1955 18.879 17.1946 18.879C17.1936 18.879 17.1926 18.879 17.1917 18.879C17.1908 18.879 17.1898 18.879 17.1889 18.879C17.188 18.879 17.1871 18.879 17.1862 18.879C17.1853 18.879 17.1844 18.879 17.1835 18.879C17.1827 18.879 17.1818 18.879 17.1809 18.879C17.1801 18.879 17.1792 18.879 17.1784 18.879C17.1776 18.879 17.1768 18.879 17.1759 18.879C17.1751 18.879 17.1743 18.879 17.1735 18.879C17.1728 18.879 17.172 18.879 17.1712 18.879C17.1704 18.879 17.1697 18.879 17.1689 18.879C17.1682 18.879 17.1675 18.879 17.1667 18.879C17.166 18.879 17.1653 18.879 17.1646 18.879C17.1639 18.879 17.1632 18.879 17.1626 18.879C17.1619 18.879 17.1612 18.879 17.1606 18.879C17.1599 18.879 17.1593 18.879 17.1586 18.879C17.158 18.879 17.1574 18.879 17.1568 18.879C17.1561 18.879 17.1555 18.879 17.155 18.879C17.1544 18.879 17.1538 18.879 17.1532 18.879C17.1527 18.879 17.1521 18.879 17.1516 18.879C17.151 18.879 17.1505 18.879 17.15 18.879C17.1495 18.879 17.149 18.879 17.1485 18.879C17.148 18.879 17.1475 18.879 17.147 18.879C17.1465 18.879 17.1461 18.879 17.1456 18.879C17.1452 18.879 17.1447 18.879 17.1443 18.879C17.1439 18.879 17.1435 18.879 17.1431 18.879C17.1426 18.879 17.1423 18.879 17.1419 18.879C17.1415 18.879 17.1411 18.879 17.1408 18.879C17.1404 18.879 17.1401 18.879 17.1397 18.879C17.1394 18.879 17.1391 18.879 17.1388 18.879C17.1385 18.879 17.1382 18.879 17.1379 18.879C17.1376 18.879 17.1373 18.879 17.137 18.879C17.1368 18.879 17.1365 18.879 17.1363 18.879C17.136 18.879 17.1358 18.879 17.1356 18.879C17.1354 18.879 17.1352 18.879 17.135 18.879C17.1348 18.879 17.1346 18.879 17.1344 18.879C17.1343 18.879 17.1341 18.879 17.134 18.879C17.1338 18.879 17.1337 18.879 17.1336 18.879C17.1334 18.879 17.1333 18.879 17.1332 18.879C17.1331 18.879 17.1331 18.879 17.133 18.879C17.1329 18.879 17.1329 18.879 17.1328 18.879C17.1328 18.879 17.1327 18.879 17.1327 18.879C17.1327 18.879 17.1327 18.879 17.1327 19.479ZM14.5 14C14.1118 14.4575 14.1117 14.4574 14.1117 14.4573C14.1116 14.4573 14.1116 14.4573 14.1115 14.4572C14.1114 14.4571 14.1114 14.4571 14.1113 14.4571C14.1113 14.457 14.1113 14.457 14.1114 14.4571C14.1116 14.4573 14.1122 14.4578 14.1131 14.4586C14.1149 14.4602 14.1182 14.463 14.1228 14.467C14.132 14.4751 14.1466 14.4879 14.1658 14.5052C14.2043 14.5399 14.2616 14.5927 14.3328 14.6615C14.4754 14.7995 14.672 15.0005 14.8845 15.2492C15.3162 15.7544 15.783 16.4214 16.0198 17.1318L17.1582 16.7523C16.8514 15.8319 16.2738 15.0278 15.7968 14.4697C15.555 14.1867 15.3314 13.958 15.1672 13.7992C15.085 13.7196 15.0173 13.6572 14.9692 13.6138C14.9451 13.5921 14.9259 13.5752 14.9122 13.5632C14.9054 13.5572 14.8999 13.5525 14.8959 13.549C14.8938 13.5473 14.8922 13.5459 14.8909 13.5448C14.8903 13.5442 14.8897 13.5438 14.8893 13.5434C14.889 13.5432 14.8888 13.543 14.8887 13.5429C14.8886 13.5428 14.8885 13.5427 14.8884 13.5427C14.8883 13.5426 14.8882 13.5425 14.5 14ZM16.0198 17.1318C16.281 17.9154 16.4092 18.5175 16.4721 18.9157C16.5035 19.1148 16.5186 19.2632 16.5259 19.358C16.5296 19.4054 16.5313 19.4394 16.532 19.4597C16.5324 19.4698 16.5326 19.4765 16.5326 19.4798C16.5327 19.4814 16.5327 19.4821 16.5327 19.482C16.5327 19.4819 16.5327 19.4817 16.5327 19.4812C16.5327 19.4809 16.5327 19.4806 16.5327 19.4803C16.5327 19.4801 16.5327 19.4799 16.5327 19.4797C16.5327 19.4796 16.5327 19.4794 16.5327 19.4794C16.5327 19.4792 16.5327 19.479 17.1327 19.479C17.7327 19.479 17.7327 19.4788 17.7327 19.4786C17.7327 19.4786 17.7327 19.4784 17.7327 19.4783C17.7327 19.478 17.7327 19.4777 17.7327 19.4774C17.7327 19.4769 17.7327 19.4762 17.7327 19.4755C17.7326 19.4741 17.7326 19.4725 17.7326 19.4707C17.7326 19.4671 17.7325 19.4625 17.7324 19.4571C17.7322 19.4463 17.7318 19.4319 17.7312 19.4141C17.7298 19.3785 17.7272 19.329 17.7224 19.2659C17.7127 19.1399 17.6939 18.9598 17.6574 18.7285C17.5843 18.266 17.4407 17.5995 17.1582 16.7523L16.0198 17.1318Z" fill="#B2B7BF"/>
</svg>
