<svg width="24" height="24" viewBox="0 0 24 24" fill="none" xmlns="http://www.w3.org/2000/svg">
<g clip-path="url(#clip0_1598_18172)">
<path d="M11.6307 3.45035C11.7673 3.12183 12.2327 3.12183 12.3693 3.45035L14.3855 8.29777C14.6159 8.85174 15.1369 9.23025 15.7349 9.2782L20.9681 9.69774C21.3228 9.72618 21.4666 10.1688 21.1964 10.4002L17.2092 13.8157C16.7536 14.206 16.5546 14.8184 16.6938 15.402L17.9119 20.5087C17.9945 20.8548 17.618 21.1284 17.3144 20.9429L12.834 18.2063C12.322 17.8936 11.678 17.8936 11.166 18.2063L6.68565 20.9429C6.38201 21.1284 6.00551 20.8548 6.08806 20.5087L7.3062 15.402C7.44541 14.8184 7.24642 14.206 6.79075 13.8157L2.80361 10.4002C2.5334 10.1688 2.67721 9.72618 3.03187 9.69774L8.26507 9.2782C8.86313 9.23025 9.3841 8.85174 9.61452 8.29777L11.6307 3.45035Z" stroke="#B2B7BF" stroke-width="1.2"/>
</g>
<defs>
<clipPath id="clip0_1598_18172">
<rect width="24" height="24" fill="white"/>
</clipPath>
</defs>
</svg>
