<svg width="24" height="24" viewBox="0 0 24 24" fill="none" xmlns="http://www.w3.org/2000/svg">
<path fill-rule="evenodd" clip-rule="evenodd" d="M3.82608 5H19.5652C21.132 5 22.3913 6.3771 22.3913 8V17C22.3913 17.7899 22.0229 18.6521 21.4897 19.1853C20.926 19.749 20.1354 20 19.4782 20H3.82608C2.2593 20 1 18.6229 1 17V8C1 6.3771 2.2593 5 3.82608 5ZM10.2019 7.01405C9.73983 6.96746 9.27367 7.03717 8.84468 7.21693C8.50187 7.36134 8.19002 7.57274 7.92755 7.83855C7.5993 8.17144 7.35724 8.58115 7.22254 9.03125C7.08785 9.48135 7.06461 9.95815 7.15485 10.4195C7.24508 10.8808 7.44607 11.3127 7.74023 11.6767C8.03441 12.0408 8.41274 12.3259 8.84188 12.5064C9.27103 12.6869 9.73756 12.7572 10.2001 12.711C10.6625 12.6647 11.1065 12.5033 11.4925 12.2414C11.8784 11.9795 12.1945 11.6252 12.4129 11.2101C12.6314 10.795 12.7455 10.3318 12.7453 9.86149C12.7451 9.39163 12.6308 8.92894 12.4125 8.51429C12.1942 8.09962 11.8784 7.74564 11.4929 7.48387C11.1073 7.22209 10.6639 7.06064 10.2019 7.01405ZM11.3058 9.90796C11.3132 9.66882 11.2709 9.49348 11.2013 9.32298C11.06 8.9775 10.7899 8.70384 10.4513 8.56093C10.1132 8.4196 9.73404 8.4196 9.39597 8.56094C9.05738 8.70382 8.7874 8.97742 8.64599 9.32283C8.50603 9.6679 8.50604 10.0553 8.64601 10.4004C8.71605 10.5714 8.81837 10.7266 8.94705 10.8573C9.14048 11.0538 9.38662 11.1874 9.65417 11.2416C9.92162 11.2957 10.1989 11.2682 10.4511 11.1623C10.7899 11.0194 11.06 10.7457 11.2014 10.4001C11.2653 10.2438 11.3007 10.077 11.3058 9.90796ZM6.545 15.7257C6.4753 15.8962 6.43954 16.0791 6.43987 16.2638V17.3309C6.43987 17.5231 6.36472 17.7079 6.23004 17.8446C6.09526 17.9815 5.91183 18.0589 5.71993 18.0589C5.52804 18.0589 5.34461 17.9815 5.20983 17.8446C5.07515 17.7079 5 17.5231 5 17.3309V16.2642C4.99993 15.8888 5.07271 15.517 5.21425 15.17C5.35581 14.823 5.56339 14.5076 5.8253 14.2417C6.0872 13.9759 6.3983 13.7649 6.74089 13.6209C7.08346 13.477 7.45072 13.4029 7.82165 13.403H12.0273C12.3982 13.403 12.7654 13.4772 13.1079 13.6213C13.4504 13.7654 13.7613 13.9765 14.0231 14.2424C14.2849 14.5082 14.4924 14.8237 14.6338 15.1707C14.7753 15.5177 14.848 15.8894 14.8478 16.2647V17.3315C14.8477 17.4264 14.8293 17.5204 14.7935 17.6082C14.7576 17.6962 14.7049 17.7764 14.6382 17.844C14.5716 17.9117 14.4923 17.9655 14.4049 18.0023C14.3174 18.0391 14.2235 18.058 14.1287 18.058C14.0339 18.058 13.94 18.0391 13.8525 18.0023C13.7651 17.9655 13.6858 17.9117 13.6192 17.844C13.5525 17.7764 13.4998 17.6962 13.4639 17.6082C13.428 17.5202 13.4096 17.426 13.4096 17.3309L13.4067 16.1712C13.397 16.0181 13.3625 15.8676 13.3044 15.7256C13.163 15.3801 12.8929 15.1064 12.5542 14.9635C12.387 14.893 12.2077 14.857 12.0269 14.8573L7.82238 14.8573C7.64158 14.857 7.46243 14.893 7.29527 14.9635C6.95652 15.1064 6.68641 15.3801 6.545 15.7257ZM12.9824 8.16576C13.0793 8.33193 13.2378 8.45306 13.4238 8.50141C13.6759 8.56622 13.9052 8.70242 14.0849 8.89443C14.2646 9.08645 14.3874 9.32656 14.4386 9.58707C14.4898 9.84759 14.4673 10.1175 14.3738 10.3654C14.2802 10.6134 14.1195 10.8289 13.9108 10.9873C13.764 11.0988 13.5928 11.1811 13.4156 11.2275C13.2337 11.2799 13.0801 11.4025 12.9872 11.5678C12.8943 11.733 12.8692 11.9282 12.9167 12.1118C12.9643 12.2953 13.0811 12.4535 13.2431 12.5516C13.4052 12.6498 13.6024 12.6788 13.7864 12.6335C14.144 12.539 14.48 12.3747 14.7756 12.15C15.2013 11.8262 15.5278 11.387 15.7178 10.8835C15.9077 10.38 15.9535 9.83238 15.85 9.30371C15.7464 8.77503 15.4977 8.2865 15.1321 7.89462C14.7664 7.50273 14.2987 7.22345 13.7828 7.08944C13.5968 7.04109 13.3997 7.06981 13.2349 7.16888C13.0702 7.26788 12.9519 7.42869 12.9048 7.61525C12.8577 7.80175 12.8855 7.99969 12.9824 8.16576ZM15.8876 13.4962C16.3272 13.6129 16.7325 13.8349 17.0696 14.1434C17.4066 14.452 17.6656 14.8379 17.8249 15.2687C17.9417 15.5873 18.0011 15.9252 18 16.2651V17.5255H17.9723C17.9396 17.6452 17.8768 17.7556 17.7884 17.8454C17.6536 17.9823 17.4701 18.0597 17.2781 18.0597C17.0862 18.0597 16.9027 17.9823 16.7679 17.8454C16.6331 17.7086 16.5579 17.5237 16.5579 17.3315V16.2645C16.5589 15.9282 16.44 15.6031 16.224 15.3495C16.0379 15.1318 15.792 14.9764 15.5184 14.9031C15.3332 14.8533 15.1757 14.7311 15.0803 14.5644C14.9849 14.3978 14.9587 14.2 15.0072 14.0142C15.0556 13.8283 15.1751 13.6687 15.3403 13.5712C15.5055 13.4737 15.7024 13.4466 15.8876 13.4962Z" fill="white"/>
</svg>
