<svg width="283" height="249" viewBox="0 0 283 249" fill="none" xmlns="http://www.w3.org/2000/svg">
<g>
<path fill-rule="evenodd" clip-rule="evenodd" d="M137.122 227.138H144.989V179.69H137.122V227.138Z" />
<path fill-rule="evenodd" clip-rule="evenodd" d="M193.123 179.665H188.557L188.581 179.707L162.868 216.835V179.689H154.992V227.136H156.915L156.901 227.164H166.06L193.123 187.607L215.904 227.164H225.069L197.665 179.707L197.698 179.665H193.123Z" />
<path fill-rule="evenodd" clip-rule="evenodd" d="M89.1841 179.665H84.6184L84.642 179.707L57.243 227.164H66.4076L89.1841 187.607L116.261 227.164H125.416L125.407 227.136H127.325V179.689H119.453V216.835L93.7261 179.707L93.7593 179.665H89.1841Z" />
<path fill-rule="evenodd" clip-rule="evenodd" d="M145.188 152.39H182.088L144.933 85.5293V101.756L168.874 144.647H145.188V152.39Z" />
<path fill-rule="evenodd" clip-rule="evenodd" d="M136.839 152.39H99.9391L137.095 85.5293V101.756L113.153 144.647H136.839V152.39Z" />
<path fill-rule="evenodd" clip-rule="evenodd" d="M141.171 17L19 227.43H25.8675L141.171 32.6627L256.479 227.43H263.346L141.171 17Z" />
</g>
</svg>
