<svg width="24" height="14" viewBox="0 0 24 14" fill="none" xmlns="http://www.w3.org/2000/svg">
<path d="M4.19445 8.8C4.45445 8.8 4.68445 8.74 4.88445 8.62C5.09112 8.5 5.25445 8.33 5.37445 8.11C5.50112 7.88333 5.56445 7.61667 5.56445 7.31C5.56445 6.99667 5.50112 6.73 5.37445 6.51C5.25445 6.29 5.09112 6.12 4.88445 6C4.68445 5.88 4.45445 5.82 4.19445 5.82C3.93445 5.82 3.70112 5.88 3.49445 6C3.28779 6.12 3.12445 6.29 3.00445 6.51C2.88445 6.73 2.82445 6.99667 2.82445 7.31C2.82445 7.61667 2.88445 7.88333 3.00445 8.11C3.12445 8.33 3.28779 8.5 3.49445 8.62C3.70112 8.74 3.93445 8.8 4.19445 8.8Z" fill="white"/>
<path d="M11.8387 6.38C11.7254 6.17333 11.5688 6.01333 11.3688 5.9C11.1688 5.78 10.9354 5.72 10.6688 5.72C10.4021 5.72 10.1654 5.78 9.95875 5.9C9.75875 6.01333 9.60208 6.17667 9.48875 6.39C9.41562 6.52335 9.36609 6.67335 9.34015 6.84H11.9895C11.9642 6.67051 11.914 6.51718 11.8387 6.38Z" fill="white"/>
<path fill-rule="evenodd" clip-rule="evenodd" d="M21.1739 0H2.82608C1.2593 0 0 1.3771 0 3V11C0 12.6229 1.2593 14 2.82608 14H21.087C21.7441 14 22.5348 13.749 23.0984 13.1853C23.6316 12.6521 24 11.7899 24 11V3C24 1.3771 22.7407 0 21.1739 0ZM4.46445 10.08C3.99112 10.08 3.58445 9.98 3.24445 9.78C3.06567 9.67483 2.909 9.54109 2.77445 9.37877V10H1.28445V2.58H2.84445V5.1896C2.97166 5.05034 3.11499 4.9338 3.27445 4.84C3.61445 4.64 4.01112 4.54 4.46445 4.54C4.97112 4.54 5.42445 4.65333 5.82445 4.88C6.23112 5.10667 6.55112 5.42667 6.78445 5.84C7.02445 6.25333 7.14445 6.74333 7.14445 7.31C7.14445 7.87 7.02445 8.35667 6.78445 8.77C6.55112 9.18333 6.23112 9.50667 5.82445 9.74C5.42445 9.96667 4.97112 10.08 4.46445 10.08ZM9.23875 9.72C9.70542 9.96 10.2454 10.08 10.8588 10.08C11.3454 10.08 11.7754 10.0067 12.1488 9.86C12.5221 9.70667 12.8321 9.49 13.0788 9.21L12.2488 8.31C12.0688 8.48333 11.8688 8.61333 11.6488 8.7C11.4354 8.78667 11.1854 8.83 10.8988 8.83C10.5788 8.83 10.2987 8.77333 10.0588 8.66C9.82542 8.54 9.64208 8.37 9.50875 8.15C9.43976 8.02655 9.38957 7.89322 9.35815 7.75H13.4288C13.4354 7.68333 13.4421 7.61333 13.4488 7.54C13.4554 7.46 13.4588 7.39 13.4588 7.33C13.4588 6.75 13.3354 6.25333 13.0888 5.84C12.8421 5.42 12.5054 5.1 12.0788 4.88C11.6588 4.65333 11.1854 4.54 10.6588 4.54C10.1121 4.54 9.62208 4.66 9.18875 4.9C8.75542 5.13333 8.41208 5.46 8.15875 5.88C7.91208 6.29333 7.78875 6.77 7.78875 7.31C7.78875 7.84333 7.91542 8.32 8.16875 8.74C8.42208 9.15333 8.77875 9.48 9.23875 9.72ZM15.2173 9.6C15.5707 9.92 16.064 10.08 16.6973 10.08C16.9373 10.08 17.1673 10.0533 17.3873 10C17.614 9.94 17.8073 9.85333 17.9673 9.74L17.5473 8.64C17.374 8.77333 17.164 8.84 16.9173 8.84C16.7107 8.84 16.5473 8.78 16.4273 8.66C16.3073 8.53333 16.2473 8.35667 16.2473 8.13V5.94H17.5873V4.74H16.2473V3.43H14.6873V4.74H13.8573V5.94H14.6873V8.15C14.6873 8.79 14.864 9.27333 15.2173 9.6ZM19.323 9.92C19.7497 10.0267 20.193 10.08 20.653 10.08C21.193 10.08 21.6497 10.0067 22.023 9.86C22.403 9.71333 22.693 9.51333 22.893 9.26C23.093 9 23.193 8.70333 23.193 8.37C23.193 8.06333 23.133 7.81667 23.013 7.63C22.893 7.43667 22.7364 7.28667 22.543 7.18C22.3564 7.06667 22.1464 6.98 21.913 6.92C21.6797 6.86 21.4464 6.81667 21.213 6.79C20.9864 6.75667 20.7764 6.72 20.583 6.68C20.3897 6.64 20.233 6.58667 20.113 6.52C19.9997 6.45333 19.943 6.35333 19.943 6.22C19.943 6.07333 20.023 5.95333 20.183 5.86C20.343 5.76667 20.5964 5.72 20.943 5.72C21.1897 5.72 21.443 5.75 21.703 5.81C21.9697 5.86333 22.233 5.96667 22.493 6.12L23.013 5.01C22.7597 4.85667 22.443 4.74 22.063 4.66C21.683 4.58 21.3097 4.54 20.943 4.54C20.423 4.54 19.9764 4.61667 19.603 4.77C19.2297 4.91667 18.943 5.12 18.743 5.38C18.5497 5.64 18.453 5.94 18.453 6.28C18.453 6.58667 18.5097 6.83667 18.623 7.03C18.743 7.22333 18.8997 7.37667 19.093 7.49C19.2864 7.60333 19.4997 7.69 19.733 7.75C19.9664 7.80333 20.1964 7.84667 20.423 7.88C20.6564 7.91333 20.8697 7.94667 21.063 7.98C21.2564 8.01333 21.4097 8.06333 21.523 8.13C21.643 8.19 21.703 8.28333 21.703 8.41C21.703 8.56333 21.6264 8.68333 21.473 8.77C21.3264 8.85667 21.073 8.9 20.713 8.9C20.3864 8.9 20.053 8.85333 19.713 8.76C19.3797 8.66 19.0897 8.53333 18.843 8.38L18.323 9.5C18.5697 9.66667 18.903 9.80667 19.323 9.92Z" fill="white"/>
<path fill-rule="evenodd" clip-rule="evenodd" d="M4.88445 8.62C4.68445 8.74 4.45445 8.8 4.19445 8.8C3.93445 8.8 3.70112 8.74 3.49445 8.62C3.28779 8.5 3.12445 8.33 3.00445 8.11C2.88445 7.88333 2.82445 7.61667 2.82445 7.31C2.82445 6.99667 2.88445 6.73 3.00445 6.51C3.12445 6.29 3.28779 6.12 3.49445 6C3.70112 5.88 3.93445 5.82 4.19445 5.82C4.45445 5.82 4.68445 5.88 4.88445 6C5.09112 6.12 5.25445 6.29 5.37445 6.51C5.50112 6.73 5.56445 6.99667 5.56445 7.31C5.56445 7.61667 5.50112 7.88333 5.37445 8.11C5.25445 8.33 5.09112 8.5 4.88445 8.62ZM11.8387 6.38C11.7254 6.17333 11.5688 6.01333 11.3688 5.9C11.1688 5.78 10.9354 5.72 10.6688 5.72C10.4021 5.72 10.1654 5.78 9.95875 5.9C9.75875 6.01333 9.60208 6.17667 9.48875 6.39C9.41562 6.52335 9.36609 6.67335 9.34015 6.84H11.9895C11.9642 6.67051 11.914 6.51718 11.8387 6.38Z" fill="white"/>
</svg>
