<svg width="24" height="24" viewBox="0 0 24 24" fill="none" xmlns="http://www.w3.org/2000/svg">
<path fill-rule="evenodd" clip-rule="evenodd" d="M2.82608 5H21.1739C22.7407 5 24 6.3771 24 8V16C24 16.7899 23.6316 17.6521 23.0984 18.1853C22.5348 18.749 21.7441 19 21.087 19H2.82608C1.2593 19 0 17.6229 0 16V8C0 6.3771 1.2593 5 2.82608 5ZM6.10164 15.08C5.46831 15.08 4.97497 14.92 4.62164 14.6C4.26831 14.2733 4.09164 13.79 4.09164 13.15V10.94H3.26164V9.74H4.09164V8.43H5.65164V9.74H6.99164V10.94H5.65164V13.13C5.65164 13.3567 5.71164 13.5333 5.83164 13.66C5.95164 13.78 6.11497 13.84 6.32164 13.84C6.56831 13.84 6.77831 13.7733 6.95164 13.64L7.37164 14.74C7.21164 14.8533 7.01831 14.94 6.79164 15C6.57164 15.0533 6.34164 15.08 6.10164 15.08ZM9.11133 14.72C9.55799 14.96 10.068 15.08 10.6413 15.08C11.208 15.08 11.7147 14.96 12.1613 14.72C12.608 14.48 12.958 14.1533 13.2113 13.74C13.4647 13.32 13.5913 12.8433 13.5913 12.31C13.5913 11.7633 13.4647 11.2833 13.2113 10.87C12.958 10.4567 12.608 10.1333 12.1613 9.9C11.7147 9.66 11.208 9.54 10.6413 9.54C10.068 9.54 9.55799 9.66 9.11133 9.9C8.67133 10.1333 8.32133 10.46 8.06133 10.88C7.80799 11.2933 7.68133 11.77 7.68133 12.31C7.68133 12.8433 7.80799 13.32 8.06133 13.74C8.32133 14.1533 8.67133 14.48 9.11133 14.72ZM10.6413 13.8C10.9013 13.8 11.1347 13.74 11.3413 13.62C11.548 13.5 11.7113 13.33 11.8313 13.11C11.9513 12.8833 12.0113 12.6167 12.0113 12.31C12.0113 11.9967 11.9513 11.73 11.8313 11.51C11.7113 11.29 11.548 11.12 11.3413 11C11.1347 10.88 10.9013 10.82 10.6413 10.82C10.3813 10.82 10.148 10.88 9.94133 11C9.73466 11.12 9.568 11.29 9.44133 11.51C9.32133 11.73 9.26133 11.9967 9.26133 12.31C9.26133 12.6167 9.32133 12.8833 9.44133 13.11C9.568 13.33 9.73466 13.5 9.94133 13.62C10.148 13.74 10.3813 13.8 10.6413 13.8ZM16.1241 10.2412V9.62H14.6341V16.94H16.1941V14.4304C16.3213 14.5697 16.4646 14.6862 16.6241 14.78C16.9641 14.98 17.3607 15.08 17.8141 15.08C18.3207 15.08 18.7741 14.9667 19.1741 14.74C19.5807 14.5133 19.9007 14.1933 20.1341 13.78C20.3741 13.3667 20.4941 12.8767 20.4941 12.31C20.4941 11.75 20.3741 11.2633 20.1341 10.85C19.9007 10.4367 19.5807 10.1167 19.1741 9.89C18.7741 9.65667 18.3207 9.54 17.8141 9.54C17.3407 9.54 16.9341 9.64 16.5941 9.84C16.4151 9.94527 16.2587 10.0787 16.1241 10.2412ZM17.5441 13.8C17.8041 13.8 18.0341 13.74 18.2341 13.62C18.4407 13.5 18.6041 13.33 18.7241 13.11C18.8507 12.8833 18.9141 12.6167 18.9141 12.31C18.9141 11.9967 18.8507 11.73 18.7241 11.51C18.6041 11.29 18.4407 11.12 18.2341 11C18.0341 10.88 17.8041 10.82 17.5441 10.82C17.2841 10.82 17.0507 10.88 16.8441 11C16.6374 11.12 16.4741 11.29 16.3541 11.51C16.2341 11.73 16.1741 11.9967 16.1741 12.31C16.1741 12.6167 16.2341 12.8833 16.3541 13.11C16.4741 13.33 16.6374 13.5 16.8441 13.62C17.0507 13.74 17.2841 13.8 17.5441 13.8Z" fill="white"/>
</svg>
