<svg width="24" height="24" viewBox="0 0 24 24" fill="none" xmlns="http://www.w3.org/2000/svg">
<path d="M11.5 11.4C11.1686 11.4 10.9 11.6686 10.9 12C10.9 12.3314 11.1686 12.6 11.5 12.6V11.4ZM17 12.6C17.3314 12.6 17.6 12.3314 17.6 12C17.6 11.6686 17.3314 11.4 17 11.4V12.6ZM7 11.4C6.66863 11.4 6.4 11.6686 6.4 12C6.4 12.3314 6.66863 12.6 7 12.6V11.4ZM9 12.6C9.33137 12.6 9.6 12.3314 9.6 12C9.6 11.6686 9.33137 11.4 9 11.4V12.6ZM11.5 16.4C11.1686 16.4 10.9 16.6686 10.9 17C10.9 17.3314 11.1686 17.6 11.5 17.6V16.4ZM17 17.6C17.3314 17.6 17.6 17.3314 17.6 17C17.6 16.6686 17.3314 16.4 17 16.4V17.6ZM7 16.4C6.66863 16.4 6.4 16.6686 6.4 17C6.4 17.3314 6.66863 17.6 7 17.6V16.4ZM9 17.6C9.33137 17.6 9.6 17.3314 9.6 17C9.6 16.6686 9.33137 16.4 9 16.4V17.6ZM9 3.1H15V1.9H9V3.1ZM14.9 3V7H16.1V3H14.9ZM15 6.9H9V8.1H15V6.9ZM9.1 7V3H7.9V7H9.1ZM9 6.9C9.05523 6.9 9.1 6.94477 9.1 7H7.9C7.9 7.60751 8.39249 8.1 9 8.1V6.9ZM14.9 7C14.9 6.94477 14.9448 6.9 15 6.9V8.1C15.6075 8.1 16.1 7.60751 16.1 7H14.9ZM15 3.1C14.9448 3.1 14.9 3.05523 14.9 3H16.1C16.1 2.39249 15.6075 1.9 15 1.9V3.1ZM9 1.9C8.39249 1.9 7.9 2.39249 7.9 3H9.1C9.1 3.05523 9.05523 3.1 9 3.1V1.9ZM20.1028 6V21H21.3028V6H20.1028ZM19.7002 21.4H4.50254V22.6H19.7002V21.4ZM4.1 21V6H2.9V21H4.1ZM16 5.6H19.7028V4.4H16V5.6ZM4.5 5.6H7.99999V4.4H4.5V5.6ZM4.50254 21.4C4.27964 21.4 4.1 21.2189 4.1 21H2.9C2.9 21.8856 3.62086 22.6 4.50254 22.6V21.4ZM20.1028 21C20.1028 21.2189 19.9231 21.4 19.7002 21.4V22.6C20.5819 22.6 21.3028 21.8856 21.3028 21H20.1028ZM21.3028 6C21.3028 5.11634 20.5864 4.4 19.7028 4.4V5.6C19.9237 5.6 20.1028 5.77909 20.1028 6H21.3028ZM4.1 6C4.1 5.77909 4.27909 5.6 4.5 5.6V4.4C3.61634 4.4 2.9 5.11634 2.9 6H4.1ZM11.5 12.6H17V11.4H11.5V12.6ZM7 12.6H9V11.4H7V12.6ZM11.5 17.6H17V16.4H11.5V17.6ZM7 17.6H9V16.4H7V17.6Z" fill="#B2B7BF"/>
</svg>
