<svg width="24" height="24" viewBox="0 0 24 24" fill="none" xmlns="http://www.w3.org/2000/svg">
<path d="M3.9999 3.40002C3.11625 3.40002 2.3999 4.11637 2.3999 5.00002V19C2.3999 19.8837 3.11625 20.6 3.9999 20.6H6.4999C6.83127 20.6 7.0999 20.3314 7.0999 20C7.0999 19.6687 6.83127 19.4 6.4999 19.4H3.9999C3.77899 19.4 3.5999 19.2209 3.5999 19V5.00002C3.5999 4.77911 3.77899 4.60002 3.9999 4.60002H6.4999C6.83127 4.60002 7.0999 4.3314 7.0999 4.00002C7.0999 3.66865 6.83127 3.40002 6.4999 3.40002H3.9999Z" fill="#B2B7BF"/>
<path fill-rule="evenodd" clip-rule="evenodd" d="M13.1313 8.28287C12.5064 7.65803 11.4934 7.65803 10.8685 8.28287L8.0401 11.1113C7.41527 11.7361 7.41527 12.7492 8.0401 13.374L10.8685 16.2025C11.4934 16.8273 12.5064 16.8273 13.1313 16.2025L15.9597 13.374C16.5845 12.7492 16.5845 11.7361 15.9597 11.1113L13.1313 8.28287ZM11.7171 9.1314C11.8733 8.97519 12.1265 8.97519 12.2827 9.1314L15.1112 11.9598C15.2674 12.116 15.2674 12.3693 15.1112 12.5255L12.2827 15.3539C12.1265 15.5101 11.8733 15.5101 11.7171 15.3539L8.88863 12.5255C8.73242 12.3693 8.73242 12.116 8.88863 11.9598L11.7171 9.1314Z" fill="#B2B7BF"/>
<path d="M21.5999 5.00002C21.5999 4.11637 20.8836 3.40002 19.9999 3.40002H17.4999C17.1685 3.40002 16.8999 3.66865 16.8999 4.00002C16.8999 4.3314 17.1685 4.60002 17.4999 4.60002H19.9999C20.2208 4.60002 20.3999 4.77911 20.3999 5.00002V19C20.3999 19.2209 20.2208 19.4 19.9999 19.4H17.4999C17.1685 19.4 16.8999 19.6687 16.8999 20C16.8999 20.3314 17.1685 20.6 17.4999 20.6H19.9999C20.8836 20.6 21.5999 19.8837 21.5999 19V5.00002Z" fill="#B2B7BF"/>
</svg>
