<svg width="24" height="24" viewBox="0 0 24 24" fill="none" xmlns="http://www.w3.org/2000/svg">
<path d="M10.2923 10.4616C10.2923 10.1302 10.0237 9.86161 9.69231 9.86161C9.36094 9.86161 9.09231 10.1302 9.09231 10.4616H10.2923ZM9.09231 17.3847C9.09231 17.7161 9.36094 17.9847 9.69231 17.9847C10.0237 17.9847 10.2923 17.7161 10.2923 17.3847H9.09231ZM14.9078 10.4616C14.9078 10.1302 14.6392 9.86161 14.3078 9.86161C13.9764 9.86161 13.7078 10.1302 13.7078 10.4616H14.9078ZM13.7078 17.3847C13.7078 17.7161 13.9764 17.9847 14.3078 17.9847C14.6392 17.9847 14.9078 17.7161 14.9078 17.3847H13.7078ZM3 4.4C2.66863 4.4 2.4 4.66863 2.4 5C2.4 5.33137 2.66863 5.6 3 5.6V4.4ZM21 5.6C21.3314 5.6 21.6 5.33137 21.6 5C21.6 4.66863 21.3314 4.4 21 4.4V5.6ZM5.59738 4.944C5.56645 4.61407 5.27392 4.37169 4.944 4.40262C4.61407 4.43355 4.37169 4.72608 4.40262 5.056L5.59738 4.944ZM6.415 20.0933L7.01238 20.0373L7.01238 20.0373L6.415 20.0933ZM17.585 20.0933L16.9876 20.0373L16.9876 20.0373L17.585 20.0933ZM19.5974 5.056C19.6283 4.72608 19.3859 4.43355 19.056 4.40262C18.7261 4.37169 18.4335 4.61407 18.4026 4.944L19.5974 5.056ZM9.09231 10.4616V17.3847H10.2923V10.4616H9.09231ZM13.7078 10.4616V17.3847H14.9078V10.4616H13.7078ZM9.52327 5.07692C9.52327 3.70896 10.6322 2.6 12.0002 2.6V1.4C9.96948 1.4 8.32326 3.04621 8.32326 5.07692H9.52327ZM12.0002 2.6C13.3682 2.6 14.4771 3.70896 14.4771 5.07692H15.6771C15.6771 3.04621 14.0309 1.4 12.0002 1.4V2.6ZM3 5.6H21V4.4H3V5.6ZM4.40262 5.056L5.81762 20.1493L7.01238 20.0373L5.59738 4.944L4.40262 5.056ZM7.41063 21.6H16.5894V20.4H7.41063V21.6ZM18.1824 20.1493L19.5974 5.056L18.4026 4.944L16.9876 20.0373L18.1824 20.1493ZM16.5894 21.6C17.4152 21.6 18.1053 20.9715 18.1824 20.1493L16.9876 20.0373C16.9683 20.2429 16.7958 20.4 16.5894 20.4V21.6ZM5.81762 20.1493C5.8947 20.9715 6.58484 21.6 7.41063 21.6V20.4C7.20419 20.4 7.03165 20.2429 7.01238 20.0373L5.81762 20.1493Z" fill="#B2B7BF"/>
</svg>
