<svg width="24" height="24" viewBox="0 0 24 24" fill="none" xmlns="http://www.w3.org/2000/svg">
<path d="M12.0001 15.715C12.3314 15.715 12.6001 15.4464 12.6001 15.115V9.5C12.6001 9.16863 12.3314 8.9 12.0001 8.9C11.6687 8.9 11.4001 9.16863 11.4001 9.5V15.115C11.4001 15.4464 11.6687 15.715 12.0001 15.715Z" fill="#B2B7BF"/>
<path d="M12.0145 18.015C12.3458 18.015 12.6145 17.7463 12.6145 17.415V17.215C12.6145 16.8836 12.3458 16.615 12.0145 16.615C11.6831 16.615 11.4145 16.8836 11.4145 17.215V17.415C11.4145 17.7463 11.6831 18.015 12.0145 18.015Z" fill="#B2B7BF"/>
<path fill-rule="evenodd" clip-rule="evenodd" d="M12.9722 3.55395C12.5591 2.77352 11.4411 2.77352 11.0279 3.55395L2.85835 18.9853C2.4705 19.7179 3.00158 20.6 3.83051 20.6H20.1696C20.9985 20.6 21.5296 19.7179 21.1418 18.9853L12.9722 3.55395ZM3.9966 19.4L12.0001 4.28235L20.0035 19.4H3.9966Z" fill="#B2B7BF"/>
</svg>
