<svg width="24" height="24" viewBox="0 0 24 24" fill="none" xmlns="http://www.w3.org/2000/svg">
<path d="M13.8949 2.40002C13.0797 2.40002 12.3948 3.01304 12.3047 3.82333L11.4629 11.4H8.4999C8.16853 11.4 7.8999 11.6687 7.8999 12C7.8999 12.3314 8.16853 12.6 8.4999 12.6H11.3295L10.5024 20.0442C10.4799 20.2468 10.3087 20.4 10.1049 20.4H5.9999C5.66853 20.4 5.3999 20.6687 5.3999 21C5.3999 21.3314 5.66853 21.6 5.9999 21.6H10.1049C10.9201 21.6 11.605 20.987 11.6951 20.1767L12.5369 12.6H15.4999C15.8313 12.6 16.0999 12.3314 16.0999 12C16.0999 11.6687 15.8313 11.4 15.4999 11.4H12.6703L13.4974 3.95585C13.5199 3.75328 13.6911 3.60002 13.8949 3.60002H17.9999C18.3313 3.60002 18.5999 3.3314 18.5999 3.00002C18.5999 2.66865 18.3313 2.40002 17.9999 2.40002H13.8949Z" fill="#B2B7BF"/>
</svg>
