<svg width="24" height="24" viewBox="0 0 24 24" fill="none" xmlns="http://www.w3.org/2000/svg">
<path fill-rule="evenodd" clip-rule="evenodd" d="M9.99992 5.16195V4C9.99992 2.89543 10.8954 2 11.9999 2C13.1045 2 13.9999 2.89543 13.9999 4V5.16558C15.1533 5.49524 16.0466 6.10647 16.7015 6.8549C17.6793 7.97241 18.0999 9.36586 18.0999 10.5V13.5C18.0999 14.8405 18.6621 16.1024 19.2587 17.057C19.5538 17.5292 19.8493 17.9133 20.0702 18.1784C20.1805 18.3107 20.2715 18.4126 20.3338 18.4803C20.365 18.5141 20.3889 18.5393 20.4043 18.5554L20.4211 18.5726L20.4242 18.5758C20.5956 18.7474 20.6471 19.0055 20.5542 19.2296C20.4614 19.4538 20.2426 19.6 19.9999 19.6H14.245C14.2483 19.6496 14.2499 19.6996 14.2499 19.75C14.2499 19.9242 14.2301 20.0937 14.1927 20.2566C14.1781 20.3199 14.1608 20.3822 14.141 20.4434C13.8487 21.3467 13.0006 22 11.9999 22C10.9992 22 10.1511 21.3467 9.8588 20.4434C9.839 20.3822 9.82175 20.3199 9.80718 20.2566C9.76971 20.0937 9.74992 19.9242 9.74992 19.75C9.74992 19.6996 9.75158 19.6496 9.75484 19.6H3.99992C3.75724 19.6 3.53846 19.4538 3.44559 19.2296C3.35277 19.0056 3.404 18.7476 3.57538 18.576L3.57878 18.5726L3.5955 18.5554C3.61097 18.5393 3.63488 18.5141 3.66601 18.4803C3.72833 18.4126 3.81938 18.3107 3.92961 18.1784C4.15053 17.9133 4.44601 17.5292 4.74112 17.057C5.33773 16.1024 5.89992 14.8405 5.89992 13.5V10C5.89992 8.5122 7.09307 5.97857 9.99992 5.16195ZM10.9999 4.96124C11.3166 4.92124 11.6498 4.9 11.9999 4.9C12.3494 4.9 12.6826 4.92133 12.9999 4.96188V4C12.9999 3.44772 12.5522 3 11.9999 3C11.4476 3 10.9999 3.44772 10.9999 4V4.96124ZM10.7588 19.6C10.7529 19.6492 10.7499 19.6992 10.7499 19.75C10.7499 19.9303 10.7881 20.1017 10.8568 20.2566C11.0512 20.6945 11.4899 21 11.9999 21C12.51 21 12.9486 20.6945 13.143 20.2566C13.2117 20.1017 13.2499 19.9303 13.2499 19.75C13.2499 19.6992 13.2469 19.6492 13.241 19.6H10.7588ZM18.7209 18.4C18.5677 18.1913 18.4044 17.9543 18.2411 17.693C17.5877 16.6476 16.8999 15.1596 16.8999 13.5V10.5C16.8999 9.63414 16.5705 8.52759 15.7984 7.6451C15.0418 6.7804 13.8338 6.1 11.9999 6.1C8.36961 6.1 7.09992 8.79173 7.09992 10V13.5C7.09992 15.1596 6.41211 16.6476 5.75872 17.693C5.5954 17.9543 5.43217 18.1913 5.27889 18.4H18.7209Z" fill="#B2B7BF"/>
</svg>
