<svg width="24" height="24" viewBox="0 0 24 24" fill="none" xmlns="http://www.w3.org/2000/svg">
<path d="M12.5999 6.00002C12.5999 5.66865 12.3313 5.40002 11.9999 5.40002C11.6685 5.40002 11.3999 5.66865 11.3999 6.00002V12.3L15.6399 15.48C15.905 15.6788 16.2811 15.6251 16.4799 15.36C16.6787 15.0949 16.625 14.7188 16.3599 14.52L12.5999 11.7V6.00002Z" fill="#B2B7BF"/>
<path fill-rule="evenodd" clip-rule="evenodd" d="M11.9999 1.40002C6.14568 1.40002 1.3999 6.14581 1.3999 12C1.3999 17.8542 6.14568 22.6 11.9999 22.6C17.8541 22.6 22.5999 17.8542 22.5999 12C22.5999 6.14581 17.8541 1.40002 11.9999 1.40002ZM2.5999 12C2.5999 6.80855 6.80843 2.60002 11.9999 2.60002C17.1914 2.60002 21.3999 6.80855 21.3999 12C21.3999 17.1915 17.1914 21.4 11.9999 21.4C6.80843 21.4 2.5999 17.1915 2.5999 12Z" fill="#B2B7BF"/>
</svg>
