<svg width="24" height="24" viewBox="0 0 24 24" fill="none" xmlns="http://www.w3.org/2000/svg">
<path fill-rule="evenodd" clip-rule="evenodd" d="M8.5999 4.90002C6.74422 4.90002 5.2399 6.40435 5.2399 8.26002C5.2399 10.1157 6.74422 11.62 8.5999 11.62C10.4556 11.62 11.9599 10.1157 11.9599 8.26002C11.9599 6.40435 10.4556 4.90002 8.5999 4.90002ZM6.4399 8.26002C6.4399 7.06709 7.40696 6.10002 8.5999 6.10002C9.79283 6.10002 10.7599 7.06709 10.7599 8.26002C10.7599 9.45296 9.79283 10.42 8.5999 10.42C7.40696 10.42 6.4399 9.45296 6.4399 8.26002Z" fill="#B2B7BF"/>
<path fill-rule="evenodd" clip-rule="evenodd" d="M15.6 7.40002C14.1641 7.40002 13 8.56408 13 10C13 11.436 14.1641 12.6 15.6 12.6C17.0359 12.6 18.2 11.436 18.2 10C18.2 8.56408 17.0359 7.40002 15.6 7.40002ZM14.2 10C14.2 9.22683 14.8268 8.60002 15.6 8.60002C16.3732 8.60002 17 9.22683 17 10C17 10.7732 16.3732 11.4 15.6 11.4C14.8268 11.4 14.2 10.7732 14.2 10Z" fill="#B2B7BF"/>
<path d="M3.2 19.5C3.2 17.0946 5.29893 14.6 8.6 14.6C11.9011 14.6 14 17.0946 14 19.5C14 19.8314 14.2686 20.1 14.6 20.1C14.9314 20.1 15.2 19.8314 15.2 19.5C15.2 16.4154 12.5473 13.4 8.6 13.4C4.65269 13.4 2 16.4154 2 19.5C2 19.8314 2.26863 20.1 2.6 20.1C2.93137 20.1 3.2 19.8314 3.2 19.5Z" fill="#B2B7BF"/>
<path d="M15.6 14.4C15.2686 14.4 15 14.6687 15 15C15 15.3314 15.2686 15.6 15.6 15.6C18.2486 15.6 20 17.7942 20 20C20 20.3314 20.2686 20.6 20.6 20.6C20.9314 20.6 21.2 20.3314 21.2 20C21.2 17.2149 18.9917 14.4 15.6 14.4Z" fill="#B2B7BF"/>
</svg>
