<svg width="24" height="24" viewBox="0 0 24 24" fill="none" xmlns="http://www.w3.org/2000/svg">
<path fill-rule="evenodd" clip-rule="evenodd" d="M13.4979 3.0382C12.9788 1.65393 11.0208 1.65393 10.5017 3.0382L8.68132 7.89245C8.62277 8.04857 8.47352 8.152 8.30678 8.152H3.414C1.98855 8.152 1.27468 9.87543 2.28263 10.8834L5.68162 14.2824C5.77958 14.3803 5.81988 14.522 5.78815 14.6568L4.49615 20.1478C4.16368 21.5608 5.73335 22.6507 6.94114 21.8455L11.7779 18.621C11.9123 18.5315 12.0873 18.5315 12.2217 18.621L17.0584 21.8455C18.2662 22.6507 19.8359 21.5608 19.5034 20.1478L18.2114 14.6568C18.1797 14.522 18.22 14.3803 18.3179 14.2824L21.7169 10.8834C22.7249 9.87543 22.011 8.152 20.5856 8.152H15.6928C15.526 8.152 15.3768 8.04857 15.3183 7.89245L13.4979 3.0382ZM11.6253 3.45955C11.755 3.11348 12.2445 3.11348 12.3743 3.45955L14.1947 8.3138C14.4288 8.93828 15.0258 9.352 15.6928 9.352H20.5856C20.9419 9.352 21.1204 9.78286 20.8684 10.0348L17.4694 13.4338C17.0776 13.8257 16.9164 14.3923 17.0433 14.9317L18.3353 20.4226C18.4184 20.7759 18.026 21.0484 17.7241 20.8471L12.8873 17.6226C12.3499 17.2643 11.6497 17.2643 11.1123 17.6226L6.2755 20.8471C5.97355 21.0484 5.58114 20.7759 5.66425 20.4226L6.95625 14.9317C7.08316 14.3923 6.92196 13.8256 6.53015 13.4338L3.13116 10.0348C2.87917 9.78286 3.05764 9.352 3.414 9.352H8.30678C8.97374 9.352 9.57073 8.93828 9.80491 8.3138L11.6253 3.45955Z" fill="#B2B7BF"/>
</svg>
